<svg width="70" height="70" viewBox="0 0 70 70" fill="none" xmlns="http://www.w3.org/2000/svg">
<path d="M19.0059 50.3975C19.3362 50.3975 19.6024 50.6657 19.6025 50.9932V69.4062C19.6025 69.7366 19.3335 70.0029 19.0059 70.0029H0.59375C0.26335 70.0029 -0.00292969 69.7338 -0.00292969 69.4062V50.9932C-0.00275335 50.6657 0.266258 50.3975 0.59375 50.3975H19.0059ZM24.6045 56C24.7621 56 24.9138 56.0625 25.0254 56.1738C25.1369 56.2853 25.2001 56.437 25.2002 56.5947V58.2051C25.2002 58.3629 25.2625 58.5144 25.374 58.626C25.4856 58.7375 25.6372 58.7998 25.7949 58.7998H27.4043C27.5621 58.7998 27.7136 58.863 27.8252 58.9746C27.9366 59.0861 27.9999 59.2369 28 59.3945V61.0049C28 61.1626 28.0624 61.3142 28.1738 61.4258C28.2853 61.5373 28.437 61.5995 28.5947 61.5996H30.2051C30.3629 61.5996 30.5144 61.6628 30.626 61.7744C30.7375 61.886 30.7998 62.0376 30.7998 62.1953V69.4053C30.7997 69.563 30.7375 69.7146 30.626 69.8262C30.5144 69.9377 30.3628 70 30.2051 70H22.9951C22.8374 70 22.6858 69.9376 22.5742 69.8262C22.4627 69.7146 22.4005 69.563 22.4004 69.4053V56.5947C22.4005 56.437 22.4627 56.2853 22.5742 56.1738C22.6858 56.0624 22.8374 56 22.9951 56H24.6045ZM41.4043 56C41.5619 56 41.7136 56.0625 41.8252 56.1738C41.9367 56.2853 41.9999 56.437 42 56.5947V58.2051C42 58.3628 42.0623 58.5144 42.1738 58.626C42.2853 58.7375 42.437 58.7997 42.5947 58.7998H44.2051C44.3629 58.7998 44.5144 58.7375 44.626 58.626C44.7375 58.5144 44.7998 58.3629 44.7998 58.2051V61.5996H42.5947C42.437 61.5997 42.2853 61.6629 42.1738 61.7744C42.0624 61.886 42 62.0376 42 62.1953V66.6045C42 66.7621 42.0625 66.9138 42.1738 67.0254C42.2853 67.1369 42.437 67.2001 42.5947 67.2002H44.2051C44.3629 67.2002 44.5144 67.2625 44.626 67.374C44.7375 67.4856 44.7998 67.6372 44.7998 67.7949V69.4053C44.7997 69.563 44.7375 69.7146 44.626 69.8262C44.5144 69.9377 44.3628 70 44.2051 70H39.7949C39.6372 70 39.4856 69.9376 39.374 69.8262C39.2625 69.7146 39.2003 69.563 39.2002 69.4053V56.5947C39.2003 56.437 39.2625 56.2853 39.374 56.1738C39.4856 56.0624 39.6372 56 39.7949 56H41.4043ZM66.6045 64.4004C66.7622 64.4004 66.9138 64.4627 67.0254 64.5742C67.137 64.6858 67.2002 64.8373 67.2002 64.9951V66.6143C67.2026 66.7686 67.2647 66.916 67.374 67.0254C67.4856 67.137 67.6371 67.2002 67.7949 67.2002H69.4043C69.562 67.2002 69.7136 67.2626 69.8252 67.374C69.9368 67.4856 70 67.6372 70 67.7949V69.4053C69.9999 69.563 69.9367 69.7146 69.8252 69.8262C69.7136 69.9375 69.5619 70 69.4043 70H62.1953C62.0376 70 61.886 69.9376 61.7744 69.8262C61.6629 69.7146 61.6007 69.563 61.6006 69.4053V67.7949C61.6006 67.6372 61.6629 67.4856 61.7744 67.374C61.886 67.2625 62.0376 67.2002 62.1953 67.2002H63.8047C63.9625 67.2002 64.114 67.137 64.2256 67.0254C64.3372 66.9138 64.4004 66.7623 64.4004 66.6045V64.9951C64.4004 64.8373 64.4626 64.6858 64.5742 64.5742C64.6858 64.4627 64.8373 64.4004 64.9951 64.4004H66.6045ZM3.1416 53.2002C2.95416 53.2002 2.80006 53.3508 2.7998 53.541V66.8584C2.79987 67.0459 2.95124 67.2002 3.1416 67.2002H16.458C16.6456 67.2002 16.7997 67.0487 16.7998 66.8584V53.541C16.7996 53.3536 16.6482 53.2002 16.458 53.2002H3.1416ZM25.7949 64.4004C25.6371 64.4004 25.4856 64.4627 25.374 64.5742C25.2624 64.6858 25.2002 64.8373 25.2002 64.9951V66.6045C25.2002 66.7622 25.2625 66.9138 25.374 67.0254C25.4856 67.137 25.6371 67.2002 25.7949 67.2002H27.4043C27.5621 67.2002 27.7136 67.137 27.8252 67.0254C27.9368 66.9138 28 66.7623 28 66.6045V64.9951C28 64.8373 27.9368 64.6858 27.8252 64.5742C27.7136 64.4627 27.562 64.4004 27.4043 64.4004H25.7949ZM35.8047 50.4004C35.9624 50.4004 36.114 50.4627 36.2256 50.5742C36.3372 50.6858 36.4004 50.8373 36.4004 50.9951V52.6045C36.4004 52.7623 36.3372 52.9138 36.2256 53.0254C36.114 53.137 35.9625 53.2002 35.8047 53.2002H34.1953C34.0376 53.2002 33.886 53.2625 33.7744 53.374C33.6629 53.4856 33.6006 53.6372 33.6006 53.7949V55.4141C33.6029 55.5686 33.665 55.7167 33.7744 55.8262C33.886 55.9376 34.0376 56 34.1953 56H35.8047C35.9623 56 36.114 56.0625 36.2256 56.1738C36.3371 56.2853 36.4003 56.437 36.4004 56.5947V66.6045C36.4004 66.7623 36.3372 66.9138 36.2256 67.0254C36.114 67.137 35.9625 67.2002 35.8047 67.2002H34.1953C34.0375 67.2002 33.886 67.137 33.7744 67.0254C33.6629 66.9138 33.6006 66.7622 33.6006 66.6045V59.3945C33.6005 59.2369 33.5372 59.0861 33.4258 58.9746C33.3142 58.863 33.1627 58.7998 33.0049 58.7998H31.3955C31.2378 58.7998 31.0862 58.7375 30.9746 58.626C30.863 58.5144 30.8008 58.3629 30.8008 58.2051V50.4004H35.8047ZM58.7998 41.4053C58.7997 41.563 58.7375 41.7146 58.626 41.8262C58.5144 41.9377 58.3628 42 58.2051 42H56.5947C56.437 41.9999 56.2853 41.9377 56.1738 41.8262C56.0623 41.7146 56.0001 41.563 56 41.4053V39.7949C56 39.6372 55.9368 39.4856 55.8252 39.374C55.7136 39.2626 55.562 39.2002 55.4043 39.2002H53.7949C53.6372 39.2002 53.4856 39.2625 53.374 39.374C53.2625 39.4856 53.2002 39.6372 53.2002 39.7949V41.4053C53.2001 41.563 53.1369 41.7146 53.0254 41.8262C52.9138 41.9375 52.7621 42 52.6045 42H50.9951C50.8374 42 50.6858 42.0624 50.5742 42.1738C50.4627 42.2853 50.4005 42.437 50.4004 42.5947V44.2051C50.4004 44.3629 50.4627 44.5144 50.5742 44.626C50.6858 44.7375 50.8374 44.7998 50.9951 44.7998H58.7998V67.2002H45.3955C45.2377 67.2002 45.0862 67.137 44.9746 67.0254C44.8631 66.9138 44.8008 66.7622 44.8008 66.6045V64.9951C44.8008 64.8373 44.863 64.6858 44.9746 64.5742C45.0862 64.4627 45.2377 64.4004 45.3955 64.4004H55.4043C55.5621 64.4004 55.7136 64.3372 55.8252 64.2256C55.9368 64.114 56 63.9625 56 63.8047V59.3945C55.9999 59.2369 55.9366 59.0861 55.8252 58.9746C55.7136 58.863 55.5621 58.7998 55.4043 58.7998H53.7949C53.6371 58.7998 53.4856 58.863 53.374 58.9746C53.2626 59.0861 53.2003 59.237 53.2002 59.3945V61.0049C53.2002 61.1627 53.137 61.3142 53.0254 61.4258C52.9138 61.5373 52.7622 61.5996 52.6045 61.5996H50.9951C50.8373 61.5996 50.6858 61.5373 50.5742 61.4258C50.4626 61.3142 50.4004 61.1627 50.4004 61.0049V59.3945C50.4003 59.2369 50.337 59.0861 50.2256 58.9746C50.114 58.863 49.9625 58.7998 49.8047 58.7998H48.1953C48.0375 58.7998 47.886 58.863 47.7744 58.9746C47.663 59.0861 47.6007 59.237 47.6006 59.3945V61.0049C47.6006 61.1627 47.5374 61.3142 47.4258 61.4258C47.3142 61.5373 47.1626 61.5996 47.0049 61.5996H44.8008V44.7998H47.0049C47.1626 44.7998 47.3142 44.7374 47.4258 44.626C47.5373 44.5144 47.6006 44.3629 47.6006 44.2051V39.7949C47.6006 39.6372 47.5373 39.4856 47.4258 39.374C47.3142 39.2626 47.1626 39.2002 47.0049 39.2002H45.3955C45.2377 39.2002 45.0862 39.137 44.9746 39.0254C44.8631 38.9138 44.8008 38.7622 44.8008 38.6045V36.9951C44.8008 36.8373 44.863 36.6858 44.9746 36.5742C45.0862 36.4627 45.2377 36.4004 45.3955 36.4004H49.8047C49.9625 36.4004 50.114 36.3372 50.2256 36.2256C50.3372 36.114 50.4004 35.9625 50.4004 35.8047V34.1953C50.4004 34.0375 50.4627 33.886 50.5742 33.7744C50.6858 33.6628 50.8373 33.5996 50.9951 33.5996H58.7998V41.4053ZM58.8008 63.8047C58.8008 63.9625 58.8631 64.114 58.9746 64.2256C59.0862 64.3372 59.2377 64.4004 59.3955 64.4004H61.0049C61.1626 64.4004 61.3142 64.4627 61.4258 64.5742C61.5374 64.6858 61.6006 64.8373 61.6006 64.9951V66.6045C61.6006 66.7623 61.5373 66.9138 61.4258 67.0254C61.3142 67.137 61.1627 67.2002 61.0049 67.2002H58.8008V63.8047ZM13.4033 55.9971C13.7337 55.9971 14 56.2662 14 56.5938V63.8066C13.9999 64.1369 13.7308 64.4023 13.4033 64.4023H6.19336C5.86316 64.4022 5.59781 64.134 5.59766 63.8066V56.5938C5.59766 56.2634 5.86587 55.9972 6.19336 55.9971H13.4033ZM63.8047 61.5996C64.1333 61.5996 64.4004 61.8667 64.4004 62.1953V63.8047C64.4004 64.1333 64.1333 64.4004 63.8047 64.4004H62.1953C61.8667 64.4004 61.6006 64.1333 61.6006 63.8047V62.1953C61.6006 61.8667 61.8667 61.5996 62.1953 61.5996H63.8047ZM69.4043 58.7998C69.5621 58.7998 69.7136 58.863 69.8252 58.9746C69.9366 59.0861 69.9999 59.2369 70 59.3945V63.8047C70 63.9625 69.9368 64.114 69.8252 64.2256C69.7136 64.3372 69.5621 64.4004 69.4043 64.4004H67.7949C67.6371 64.4004 67.4856 64.3372 67.374 64.2256C67.2625 64.114 67.2002 63.9625 67.2002 63.8047V62.1953C67.2002 62.0375 67.137 61.886 67.0254 61.7744C66.9138 61.6629 66.7623 61.5996 66.6045 61.5996H64.9951C64.8373 61.5996 64.6858 61.5373 64.5742 61.4258C64.4626 61.3142 64.4004 61.1627 64.4004 61.0049V59.3945C64.4005 59.237 64.4628 59.0861 64.5742 58.9746C64.6858 58.863 64.8373 58.7998 64.9951 58.7998H69.4043ZM58.8008 52.6045C58.8008 52.7622 58.8631 52.9138 58.9746 53.0254C59.0862 53.137 59.2377 53.2002 59.3955 53.2002H61.0049C61.1626 53.2002 61.3142 53.2626 61.4258 53.374C61.5373 53.4856 61.6006 53.6372 61.6006 53.7949V58.2051C61.6006 58.3629 61.5373 58.5144 61.4258 58.626C61.3142 58.7374 61.1626 58.7998 61.0049 58.7998H59.3955C59.2377 58.7998 59.0862 58.863 58.9746 58.9746C58.8632 59.0861 58.8009 59.237 58.8008 59.3945V52.6045ZM48.1953 47.5996C48.0375 47.5996 47.886 47.6628 47.7744 47.7744C47.6628 47.886 47.6006 48.0375 47.6006 48.1953V55.4141C47.6029 55.5686 47.665 55.7167 47.7744 55.8262C47.886 55.9376 48.0376 56 48.1953 56H55.4043C55.5619 56 55.7136 55.9375 55.8252 55.8262C55.9367 55.7146 55.9999 55.563 56 55.4053V48.1953C56 48.0375 55.9368 47.886 55.8252 47.7744C55.7136 47.6629 55.5621 47.5996 55.4043 47.5996H48.1953ZM30.7998 53.7949C30.7998 53.6371 30.7375 53.4856 30.626 53.374C30.5144 53.2625 30.3629 53.2002 30.2051 53.2002H28.5947C28.437 53.2001 28.2853 53.1369 28.1738 53.0254C28.0625 52.9138 28 52.7621 28 52.6045V50.9951C28 50.8374 28.0624 50.6858 28.1738 50.5742C28.2853 50.4627 28.437 50.4005 28.5947 50.4004H30.7998V53.7949ZM24.6045 47.5996C24.7623 47.5996 24.9138 47.6629 25.0254 47.7744C25.137 47.886 25.2002 48.0375 25.2002 48.1953V52.6045C25.2002 52.7623 25.137 52.9138 25.0254 53.0254C24.9138 53.137 24.7623 53.2002 24.6045 53.2002H22.9951C22.8373 53.2002 22.6858 53.137 22.5742 53.0254C22.4627 52.9138 22.4004 52.7622 22.4004 52.6045V48.1953C22.4004 48.0375 22.4627 47.886 22.5742 47.7744C22.6858 47.6628 22.8373 47.5996 22.9951 47.5996H24.6045ZM41.4043 50.4004C41.7329 50.4004 42 50.6665 42 50.9951V52.6045C42 52.9331 41.7329 53.2002 41.4043 53.2002H39.7949C39.4663 53.2002 39.2002 52.9331 39.2002 52.6045V50.9951C39.2002 50.6665 39.4663 50.4004 39.7949 50.4004H41.4043ZM52.6045 50.4004C52.9331 50.4004 53.2002 50.6665 53.2002 50.9951V52.6045C53.2002 52.9331 52.9331 53.2002 52.6045 53.2002H50.9951C50.6665 53.2002 50.4004 52.9331 50.4004 52.6045V50.9951C50.4004 50.6665 50.6665 50.4004 50.9951 50.4004H52.6045ZM69.4043 39.2002C69.562 39.2002 69.7136 39.2626 69.8252 39.374C69.9368 39.4856 70 39.6372 70 39.7949V52.6045C70 52.7623 69.9368 52.9138 69.8252 53.0254C69.7136 53.137 69.5621 53.2002 69.4043 53.2002H62.1953C62.0375 53.2002 61.886 53.137 61.7744 53.0254C61.6629 52.9138 61.6006 52.7622 61.6006 52.6045V50.9951C61.6006 50.8373 61.6628 50.6858 61.7744 50.5742C61.886 50.4627 62.0375 50.4004 62.1953 50.4004H66.6045C66.7623 50.4004 66.9138 50.3372 67.0254 50.2256C67.137 50.114 67.2002 49.9625 67.2002 49.8047V45.3945C67.2001 45.2369 67.1368 45.0861 67.0254 44.9746C66.9138 44.863 66.7623 44.7998 66.6045 44.7998H64.9951C64.8374 44.7998 64.6858 44.7375 64.5742 44.626C64.4627 44.5144 64.4004 44.3629 64.4004 44.2051V42.5947C64.4003 42.437 64.3371 42.2853 64.2256 42.1738C64.114 42.0625 63.9623 42 63.8047 42H62.1953C62.0376 42 61.886 41.9376 61.7744 41.8262C61.6629 41.7146 61.6007 41.563 61.6006 41.4053V39.7949C61.6006 39.6372 61.6629 39.4856 61.7744 39.374C61.886 39.2625 62.0376 39.2002 62.1953 39.2002H69.4043ZM44.7998 48.1953C44.7998 48.0376 44.7374 47.886 44.626 47.7744C44.5144 47.6628 44.3629 47.5996 44.2051 47.5996H42.5947C42.437 47.5995 42.2853 47.5373 42.1738 47.4258C42.0624 47.3142 42 47.1626 42 47.0049V45.3945C42.0001 45.2371 42.0626 45.086 42.1738 44.9746C42.2853 44.8631 42.437 44.7999 42.5947 44.7998H44.7998V48.1953ZM61.0049 44.7998C61.1627 44.7998 61.3142 44.863 61.4258 44.9746C61.5372 45.0861 61.6005 45.2369 61.6006 45.3945V47.0049C61.6006 47.1627 61.5374 47.3142 61.4258 47.4258C61.3142 47.5373 61.1626 47.5996 61.0049 47.5996H59.3955C59.2377 47.5996 59.0862 47.6628 58.9746 47.7744C58.863 47.886 58.8008 48.0375 58.8008 48.1953V44.7998H61.0049ZM2.7998 47.0049C2.7998 47.1626 2.7375 47.3142 2.62598 47.4258C2.51441 47.5373 2.36285 47.5996 2.20508 47.5996H0.594727C0.437021 47.5995 0.285348 47.5373 0.173828 47.4258C0.0623622 47.3142 0 47.1626 0 47.0049V34.1953C0 34.0376 0.0624157 33.886 0.173828 33.7744C0.285348 33.6629 0.437021 33.5997 0.594727 33.5996H2.20508C2.36285 33.5996 2.51441 33.5373 2.62598 33.4258C2.7375 33.3142 2.7998 33.1626 2.7998 33.0049V47.0049ZM7.80469 42C7.96233 42 8.11403 42.0625 8.22559 42.1738C8.33711 42.2853 8.40032 42.437 8.40039 42.5947V44.2139C8.40269 44.3685 8.46473 44.5165 8.57422 44.626C8.68579 44.7375 8.83738 44.7998 8.99512 44.7998H13.4043C13.562 44.7998 13.7136 44.7374 13.8252 44.626C13.9368 44.5144 14 44.3629 14 44.2051V42.5947C14.0001 42.437 14.0623 42.2853 14.1738 42.1738C14.2853 42.0623 14.437 42.0001 14.5947 42H16.2051C16.3628 42 16.5144 42.0623 16.626 42.1738C16.7375 42.2853 16.7997 42.437 16.7998 42.5947V47.5996H6.19531C6.03753 47.5996 5.88599 47.5373 5.77441 47.4258C5.66283 47.3142 5.60059 47.1627 5.60059 47.0049V42.5947C5.60066 42.437 5.66289 42.2853 5.77441 42.1738C5.88597 42.0624 6.03762 42 6.19531 42H7.80469ZM16.8008 44.2051C16.8008 44.3629 16.863 44.5144 16.9746 44.626C17.0862 44.7375 17.2378 44.7998 17.3955 44.7998H21.8047C21.9625 44.7998 22.114 44.863 22.2256 44.9746C22.337 45.0861 22.4003 45.2369 22.4004 45.3945V47.0049C22.4004 47.1627 22.3372 47.3142 22.2256 47.4258C22.114 47.5373 21.9624 47.5996 21.8047 47.5996H16.8008V44.2051ZM30.2051 36.4004C30.3629 36.4004 30.5144 36.4627 30.626 36.5742C30.7375 36.6858 30.7998 36.8374 30.7998 36.9951V47.0049C30.7998 47.1626 30.7375 47.3142 30.626 47.4258C30.5144 47.5373 30.3629 47.5996 30.2051 47.5996H25.7949C25.6371 47.5996 25.4856 47.5373 25.374 47.4258C25.2624 47.3142 25.2002 47.1627 25.2002 47.0049V45.3945C25.2001 45.2369 25.1368 45.0861 25.0254 44.9746C24.9138 44.863 24.7623 44.7998 24.6045 44.7998H22.9951C22.8374 44.7998 22.6858 44.7375 22.5742 44.626C22.4627 44.5144 22.4004 44.3629 22.4004 44.2051V42.5947C22.4005 42.437 22.4627 42.2853 22.5742 42.1738C22.6858 42.0624 22.8374 42 22.9951 42H24.6045C24.7621 42 24.9138 41.9375 25.0254 41.8262C25.1369 41.7146 25.2001 41.563 25.2002 41.4053V39.7949C25.2002 39.6372 25.2625 39.4856 25.374 39.374C25.4856 39.2625 25.6372 39.2002 25.7949 39.2002H27.4043C27.5621 39.2002 27.7136 39.137 27.8252 39.0254C27.9368 38.9138 28 38.7623 28 38.6045V36.9951C28 36.8374 28.0624 36.6858 28.1738 36.5742C28.2853 36.4627 28.437 36.4005 28.5947 36.4004H30.2051ZM35.8047 42C35.9623 42 36.114 42.0625 36.2256 42.1738C36.3371 42.2853 36.4003 42.437 36.4004 42.5947V47.0049C36.4004 47.1627 36.3372 47.3142 36.2256 47.4258C36.114 47.5373 35.9624 47.5996 35.8047 47.5996H34.1953C34.0375 47.5996 33.886 47.5373 33.7744 47.4258C33.6628 47.3142 33.6006 47.1627 33.6006 47.0049V42.5947C33.6007 42.437 33.6629 42.2853 33.7744 42.1738C33.886 42.0624 34.0376 42 34.1953 42H35.8047ZM41.4043 39.2002C41.562 39.2002 41.7136 39.2626 41.8252 39.374C41.9368 39.4856 42 39.6372 42 39.7949V44.2051C42 44.3629 41.9368 44.5144 41.8252 44.626C41.7136 44.7374 41.562 44.7998 41.4043 44.7998H39.7949C39.6372 44.7998 39.4856 44.7375 39.374 44.626C39.2625 44.5144 39.2002 44.3629 39.2002 44.2051V42.5947C39.2001 42.437 39.1369 42.2853 39.0254 42.1738C38.9138 42.0625 38.7621 42 38.6045 42H36.9951C36.8374 42 36.6858 41.9376 36.5742 41.8262C36.4627 41.7146 36.4005 41.563 36.4004 41.4053V39.7949C36.4004 39.6372 36.4627 39.4856 36.5742 39.374C36.6858 39.2625 36.8374 39.2002 36.9951 39.2002H41.4043ZM21.8047 33.5996C21.9625 33.5996 22.114 33.6629 22.2256 33.7744C22.3372 33.886 22.4004 34.0375 22.4004 34.1953V41.4053C22.4003 41.563 22.3371 41.7146 22.2256 41.8262C22.114 41.9375 21.9623 42 21.8047 42H17.3955C17.2378 42 17.0862 41.9376 16.9746 41.8262C16.8631 41.7146 16.8009 41.563 16.8008 41.4053V39.7949C16.8008 39.6372 16.863 39.4856 16.9746 39.374C17.0862 39.2625 17.2378 39.2002 17.3955 39.2002H19.0049C19.1627 39.2002 19.3142 39.137 19.4258 39.0254C19.5373 38.9138 19.6006 38.7623 19.6006 38.6045V36.9951C19.6006 36.8373 19.5374 36.6858 19.4258 36.5742C19.3142 36.4627 19.1626 36.4004 19.0049 36.4004H17.3955C17.2377 36.4004 17.0862 36.3372 16.9746 36.2256C16.8631 36.114 16.8008 35.9625 16.8008 35.8047V34.1953C16.8008 34.0375 16.863 33.886 16.9746 33.7744C17.0862 33.6628 17.2377 33.5996 17.3955 33.5996H21.8047ZM16.2051 36.4004C16.3629 36.4004 16.5144 36.4627 16.626 36.5742C16.7375 36.6858 16.7998 36.8374 16.7998 36.9951V38.6045C16.7998 38.7622 16.7374 38.9138 16.626 39.0254C16.5144 39.137 16.3629 39.2002 16.2051 39.2002H11.7949C11.6371 39.2002 11.4856 39.137 11.374 39.0254C11.2625 38.9138 11.2002 38.7622 11.2002 38.6045V36.9951C11.2002 36.8373 11.2624 36.6858 11.374 36.5742C11.4856 36.4627 11.6371 36.4004 11.7949 36.4004H16.2051ZM35.8047 36.4004C36.1333 36.4004 36.4004 36.6665 36.4004 36.9951V38.6045C36.4004 38.9331 36.1333 39.2002 35.8047 39.2002H34.1953C33.8667 39.2002 33.6006 38.9331 33.6006 38.6045V36.9951C33.6006 36.6665 33.8667 36.4004 34.1953 36.4004H35.8047ZM13.4043 22.4004C13.562 22.4004 13.7136 22.4627 13.8252 22.5742C13.9368 22.6858 14 22.8373 14 22.9951V27.4053C14.0001 27.563 14.0623 27.7146 14.1738 27.8262C14.2853 27.9377 14.437 27.9999 14.5947 28H16.7998V33.0049C16.7998 33.1626 16.7375 33.3142 16.626 33.4258C16.5144 33.5373 16.3629 33.5996 16.2051 33.5996H11.7949C11.6371 33.5996 11.4856 33.6628 11.374 33.7744C11.2625 33.886 11.2002 34.0375 11.2002 34.1953V35.8047C11.2002 35.9625 11.137 36.114 11.0254 36.2256C10.9138 36.3372 10.7623 36.4004 10.6045 36.4004H3.39551C3.23772 36.4004 3.08619 36.4627 2.97461 36.5742C2.86303 36.6858 2.80078 36.8373 2.80078 36.9951V31.3945C2.8009 31.237 2.86323 31.0861 2.97461 30.9746C3.08619 30.863 3.2377 30.7998 3.39551 30.7998H10.6045C10.7622 30.7998 10.9138 30.7374 11.0254 30.626C11.137 30.5144 11.2002 30.3629 11.2002 30.2051V28.5947C11.2001 28.437 11.1369 28.2853 11.0254 28.1738C10.9138 28.0625 10.7621 28 10.6045 28H8.99512C8.83743 28 8.68578 27.9376 8.57422 27.8262C8.4627 27.7146 8.40046 27.563 8.40039 27.4053V25.7949C8.40037 25.6372 8.33715 25.4856 8.22559 25.374C8.11403 25.2626 7.96237 25.2002 7.80469 25.2002H6.19531C6.03758 25.2002 5.88598 25.2625 5.77441 25.374C5.66285 25.4856 5.60061 25.6372 5.60059 25.7949V27.4053C5.60052 27.563 5.5373 27.7146 5.42578 27.8262C5.31423 27.9375 5.16253 28 5.00488 28H3.39551C3.23782 28 3.08617 27.9376 2.97461 27.8262C2.86309 27.7146 2.80085 27.563 2.80078 27.4053V22.4004H13.4043ZM61.0049 33.5996C61.1627 33.5996 61.3142 33.6629 61.4258 33.7744C61.5374 33.886 61.6006 34.0375 61.6006 34.1953V35.8047C61.6006 35.9625 61.5374 36.114 61.4258 36.2256C61.3142 36.3372 61.1627 36.4004 61.0049 36.4004H59.3955C59.2377 36.4004 59.0862 36.4627 58.9746 36.5742C58.863 36.6858 58.8008 36.8373 58.8008 36.9951V33.5996H61.0049ZM30.2051 22.4004C30.3629 22.4004 30.5144 22.4627 30.626 22.5742C30.7375 22.6858 30.7998 22.8374 30.7998 22.9951V24.6045C30.7998 24.7622 30.7374 24.9138 30.626 25.0254C30.5144 25.137 30.3629 25.2002 30.2051 25.2002H28.5947C28.437 25.2003 28.2853 25.2625 28.1738 25.374C28.0623 25.4856 28 25.6372 28 25.7949V30.2051C28 30.3628 28.0623 30.5144 28.1738 30.626C28.2853 30.7375 28.437 30.7997 28.5947 30.7998H30.2051C30.3629 30.7998 30.5144 30.7375 30.626 30.626C30.7375 30.5144 30.7998 30.3629 30.7998 30.2051V34.1953C30.7998 34.0376 30.7374 33.886 30.626 33.7744C30.5144 33.6628 30.3629 33.5996 30.2051 33.5996H28.5947C28.437 33.5997 28.2853 33.6629 28.1738 33.7744C28.0624 33.886 28 34.0376 28 34.1953V35.8047C28 35.9625 27.9368 36.114 27.8252 36.2256C27.7136 36.3372 27.5621 36.4004 27.4043 36.4004H25.7949C25.6371 36.4004 25.4856 36.3372 25.374 36.2256C25.2625 36.114 25.2002 35.9625 25.2002 35.8047V34.1953C25.2002 34.0375 25.137 33.886 25.0254 33.7744C24.9138 33.6629 24.7623 33.5996 24.6045 33.5996H22.9951C22.8373 33.5996 22.6858 33.5373 22.5742 33.4258C22.4626 33.3142 22.4004 33.1627 22.4004 33.0049V28.5947C22.4005 28.437 22.4627 28.2853 22.5742 28.1738C22.6858 28.0624 22.8374 28 22.9951 28H24.6045C24.7621 28 24.9138 27.9375 25.0254 27.8262C25.1369 27.7146 25.2001 27.563 25.2002 27.4053V25.7949C25.2002 25.6372 25.137 25.4856 25.0254 25.374C24.9138 25.2626 24.7622 25.2002 24.6045 25.2002H17.3955C17.2377 25.2002 17.0862 25.137 16.9746 25.0254C16.8631 24.9138 16.8008 24.7622 16.8008 24.6045V22.9951C16.8008 22.8373 16.863 22.6858 16.9746 22.5742C17.0862 22.4627 17.2377 22.4004 17.3955 22.4004H30.2051ZM38.6045 28C38.7621 28 38.9138 28.0625 39.0254 28.1738C39.1369 28.2853 39.2001 28.437 39.2002 28.5947V30.2051C39.2002 30.3629 39.137 30.5144 39.0254 30.626C38.9138 30.7374 38.7622 30.7998 38.6045 30.7998H34.1953C34.0375 30.7998 33.886 30.863 33.7744 30.9746C33.663 31.0861 33.6007 31.237 33.6006 31.3945V35.8047C33.6006 35.9625 33.5374 36.114 33.4258 36.2256C33.3142 36.3372 33.1627 36.4004 33.0049 36.4004H31.3955C31.2377 36.4004 31.0862 36.3372 30.9746 36.2256C30.8631 36.114 30.8008 35.9625 30.8008 35.8047V28.5947C30.8009 28.437 30.8631 28.2853 30.9746 28.1738C31.0862 28.0624 31.2378 28 31.3955 28H38.6045ZM41.4043 30.7998C41.5621 30.7998 41.7136 30.863 41.8252 30.9746C41.9366 31.0861 41.9999 31.2369 42 31.3945V33.0049C42 33.1626 42.0624 33.3142 42.1738 33.4258C42.2853 33.5373 42.437 33.5995 42.5947 33.5996H44.2051C44.3629 33.5996 44.5144 33.6628 44.626 33.7744C44.7375 33.886 44.7998 34.0376 44.7998 34.1953V35.8047C44.7998 35.9624 44.7374 36.114 44.626 36.2256C44.5144 36.3372 44.3629 36.4004 44.2051 36.4004H36.9951C36.8373 36.4004 36.6858 36.3372 36.5742 36.2256C36.4627 36.114 36.4004 35.9625 36.4004 35.8047V34.1953C36.4004 34.0375 36.4627 33.886 36.5742 33.7744C36.6858 33.6628 36.8373 33.5996 36.9951 33.5996H38.6045C38.7622 33.5996 38.9138 33.5373 39.0254 33.4258C39.137 33.3142 39.2002 33.1627 39.2002 33.0049V31.3945C39.2003 31.237 39.2626 31.0861 39.374 30.9746C39.4856 30.863 39.6371 30.7998 39.7949 30.7998H41.4043ZM69.4043 33.5996C69.5621 33.5996 69.7136 33.6629 69.8252 33.7744C69.9368 33.886 70 34.0375 70 34.1953V35.8047C70 35.9625 69.9368 36.114 69.8252 36.2256C69.7136 36.3372 69.5621 36.4004 69.4043 36.4004H64.9951C64.8373 36.4004 64.6858 36.3372 64.5742 36.2256C64.4627 36.114 64.4004 35.9625 64.4004 35.8047V34.1953C64.4004 34.0375 64.4627 33.886 64.5742 33.7744C64.6858 33.6628 64.8373 33.5996 64.9951 33.5996H69.4043ZM35.8047 16.7998C35.9625 16.7998 36.114 16.863 36.2256 16.9746C36.337 17.0861 36.4003 17.2369 36.4004 17.3945V21.8047C36.4004 21.9625 36.4627 22.114 36.5742 22.2256C36.6858 22.3372 36.8373 22.4004 36.9951 22.4004H44.2051C44.3629 22.4004 44.5144 22.4627 44.626 22.5742C44.7375 22.6858 44.7998 22.8374 44.7998 22.9951V24.6045C44.7998 24.7622 44.8631 24.9138 44.9746 25.0254C45.0862 25.137 45.2377 25.2002 45.3955 25.2002H47.0049C47.1627 25.2002 47.3142 25.137 47.4258 25.0254C47.5373 24.9138 47.6006 24.7623 47.6006 24.6045V22.9951C47.6006 22.8373 47.6628 22.6858 47.7744 22.5742C47.886 22.4627 48.0375 22.4004 48.1953 22.4004H49.8047C49.9624 22.4004 50.114 22.4627 50.2256 22.5742C50.3372 22.6858 50.4004 22.8373 50.4004 22.9951V27.4053C50.4005 27.563 50.4627 27.7146 50.5742 27.8262C50.6858 27.9376 50.8374 28 50.9951 28H52.6045C52.7621 28 52.9138 28.0625 53.0254 28.1738C53.1369 28.2853 53.2001 28.437 53.2002 28.5947V30.2051C53.2002 30.3629 53.137 30.5144 53.0254 30.626C52.9138 30.7374 52.7622 30.7998 52.6045 30.7998H50.9951C50.8373 30.7998 50.6858 30.863 50.5742 30.9746C50.4628 31.0861 50.4005 31.237 50.4004 31.3945V33.0049C50.4004 33.1627 50.3372 33.3142 50.2256 33.4258C50.114 33.5373 49.9624 33.5996 49.8047 33.5996H45.3955C45.2377 33.5996 45.0862 33.5373 44.9746 33.4258C44.863 33.3142 44.8008 33.1627 44.8008 33.0049V31.3945C44.8009 31.237 44.8632 31.0861 44.9746 30.9746C45.0862 30.863 45.2377 30.7998 45.3955 30.7998H47.0049C47.1626 30.7998 47.3142 30.7374 47.4258 30.626C47.5373 30.5144 47.6006 30.3629 47.6006 30.2051V28.5947C47.6005 28.437 47.5373 28.2853 47.4258 28.1738C47.3142 28.0625 47.1625 28 47.0049 28H45.3955C45.2378 28 45.0862 28.0624 44.9746 28.1738C44.8631 28.2853 44.8009 28.437 44.8008 28.5947V25.2002H44.7998V30.2051C44.7998 30.3629 44.7375 30.5144 44.626 30.626C44.5144 30.7375 44.3629 30.7998 44.2051 30.7998H42.5947C42.437 30.7997 42.2853 30.7375 42.1738 30.626C42.0623 30.5144 42 30.3628 42 30.2051V28.5947C41.9999 28.437 41.9367 28.2853 41.8252 28.1738C41.7136 28.0625 41.5619 28 41.4043 28H39.7949C39.6372 28 39.4856 27.9376 39.374 27.8262C39.2625 27.7146 39.2003 27.563 39.2002 27.4053V25.7949C39.2002 25.6372 39.137 25.4856 39.0254 25.374C38.9138 25.2626 38.7622 25.2002 38.6045 25.2002H34.1953C34.0375 25.2002 33.886 25.137 33.7744 25.0254C33.6629 24.9138 33.6006 24.7622 33.6006 24.6045V17.3945C33.6007 17.237 33.663 17.0861 33.7744 16.9746C33.886 16.863 34.0375 16.7998 34.1953 16.7998H35.8047ZM19.0049 28C19.1625 28 19.3142 28.0625 19.4258 28.1738C19.5373 28.2853 19.6005 28.437 19.6006 28.5947V30.2051C19.6006 30.3629 19.5373 30.5144 19.4258 30.626C19.3142 30.7374 19.1626 30.7998 19.0049 30.7998H17.3955C17.2377 30.7998 17.0862 30.863 16.9746 30.9746C16.8632 31.0861 16.8009 31.237 16.8008 31.3945V28H19.0049ZM2.20508 28C2.53356 28 2.79966 28.2663 2.7998 28.5947V30.2051C2.79976 30.5336 2.53363 30.7998 2.20508 30.7998H0.594727C0.266269 30.7997 4.22474e-05 30.5336 0 30.2051V28.5947C0.000147702 28.2663 0.266334 28.0001 0.594727 28H2.20508ZM55.4043 22.4004C55.562 22.4004 55.7136 22.4627 55.8252 22.5742C55.9368 22.6858 56 22.8373 56 22.9951V24.6045C56 24.7621 56.0625 24.9138 56.1738 25.0254C56.2853 25.1369 56.437 25.2001 56.5947 25.2002H58.2051C58.3629 25.2002 58.5144 25.2625 58.626 25.374C58.7375 25.4856 58.7998 25.6372 58.7998 25.7949V30.2051C58.7998 30.3629 58.7375 30.5144 58.626 30.626C58.5144 30.7375 58.3629 30.7998 58.2051 30.7998H56.5947C56.437 30.7997 56.2853 30.7375 56.1738 30.626C56.0623 30.5144 56 30.3628 56 30.2051V28.5947C55.9999 28.437 55.9367 28.2853 55.8252 28.1738C55.7136 28.0625 55.5619 28 55.4043 28H53.7949C53.6372 28 53.4856 27.9376 53.374 27.8262C53.2625 27.7146 53.2003 27.563 53.2002 27.4053V22.9951C53.2002 22.8373 53.2624 22.6858 53.374 22.5742C53.4856 22.4627 53.6371 22.4004 53.7949 22.4004H55.4043ZM63.8047 28C64.1332 28 64.4002 28.2662 64.4004 28.5947V30.2051C64.4003 30.5337 64.1333 30.7998 63.8047 30.7998H62.1953C61.8667 30.7998 61.6006 30.5337 61.6006 30.2051V28.5947C61.6007 28.2662 61.8668 28 62.1953 28H63.8047ZM69.4043 25.2002C69.7329 25.2002 70 25.4664 70 25.7949V27.4053C69.9999 27.7338 69.7328 28 69.4043 28H67.7949C67.4664 28 67.2003 27.7338 67.2002 27.4053V25.7949C67.2002 25.4664 67.4663 25.2002 67.7949 25.2002H69.4043ZM2.7998 25.7949C2.79978 25.6372 2.73754 25.4856 2.62598 25.374C2.51441 25.2625 2.36285 25.2002 2.20508 25.2002H0.594727C0.437021 25.2001 0.285348 25.1369 0.173828 25.0254C0.0624767 24.9138 0 24.7621 0 24.6045V22.9951C0 22.8374 0.0623775 22.6858 0.173828 22.5742C0.285348 22.4627 0.437021 22.4005 0.594727 22.4004H2.7998V25.7949ZM61.0049 22.4004C61.3335 22.4004 61.6006 22.6665 61.6006 22.9951V24.6045C61.6006 24.9331 61.3335 25.2002 61.0049 25.2002H59.3955C59.0669 25.2002 58.8008 24.9331 58.8008 24.6045V22.9951C58.8008 22.6665 59.0669 22.4004 59.3955 22.4004H61.0049ZM66.6045 22.4004C66.9331 22.4004 67.2002 22.6665 67.2002 22.9951V24.6045C67.2002 24.9331 66.9331 25.2002 66.6045 25.2002H64.9951C64.6665 25.2002 64.4004 24.9331 64.4004 24.6045V22.9951C64.4004 22.6665 64.6665 22.4004 64.9951 22.4004H66.6045ZM47.0049 16.7998C47.1627 16.7998 47.3142 16.863 47.4258 16.9746C47.5372 17.0861 47.6005 17.2369 47.6006 17.3945V21.8047C47.6006 21.9625 47.5374 22.114 47.4258 22.2256C47.3142 22.3372 47.1627 22.4004 47.0049 22.4004H45.3955C45.2377 22.4004 45.0862 22.3372 44.9746 22.2256C44.8631 22.114 44.8008 21.9625 44.8008 21.8047V17.3945C44.8009 17.237 44.8632 17.0861 44.9746 16.9746C45.0862 16.863 45.2377 16.7998 45.3955 16.7998H47.0049ZM19.0059 -0.00292969C19.3363 -0.00292969 19.6025 0.26615 19.6025 0.59375V19.0059C19.6025 19.3363 19.3335 19.6025 19.0059 19.6025H0.59375C0.26335 19.6025 -0.00292969 19.3335 -0.00292969 19.0059V0.59375C-0.00292969 0.26615 0.26615 -0.00292969 0.59375 -0.00292969H19.0059ZM69.4062 -0.00292969C69.7366 -0.0029155 70.0029 0.266159 70.0029 0.59375V19.0059C70.0029 19.3363 69.7338 19.6025 69.4062 19.6025H50.9932C50.6629 19.6024 50.3975 19.3334 50.3975 19.0059V0.59375C50.3975 0.266237 50.6657 -0.00278671 50.9932 -0.00292969H69.4062ZM24.6045 14C24.7621 14 24.9138 14.0625 25.0254 14.1738C25.1369 14.2853 25.2001 14.437 25.2002 14.5947V19.0049C25.2002 19.1627 25.137 19.3142 25.0254 19.4258C24.9138 19.5373 24.7622 19.5996 24.6045 19.5996H22.9951C22.8373 19.5996 22.6858 19.5373 22.5742 19.4258C22.4626 19.3142 22.4004 19.1627 22.4004 19.0049V14.5947C22.4005 14.437 22.4627 14.2853 22.5742 14.1738C22.6858 14.0624 22.8374 14 22.9951 14H24.6045ZM30.2051 11.2002C30.3629 11.2002 30.5144 11.2625 30.626 11.374C30.7375 11.4856 30.7998 11.6372 30.7998 11.7949V19.0049C30.7998 19.1626 30.7375 19.3142 30.626 19.4258C30.5144 19.5373 30.3629 19.5996 30.2051 19.5996H28.5947C28.437 19.5995 28.2853 19.5373 28.1738 19.4258C28.0624 19.3142 28 19.1626 28 19.0049V11.7949C28 11.6372 28.0623 11.4856 28.1738 11.374C28.2853 11.2625 28.437 11.2003 28.5947 11.2002H30.2051ZM44.7998 16.2051C44.7998 16.3629 44.7375 16.5144 44.626 16.626C44.5144 16.7375 44.3629 16.7998 44.2051 16.7998H42.5947C42.437 16.7999 42.2853 16.8631 42.1738 16.9746C42.0626 17.086 42.0001 17.2371 42 17.3945V19.0049C42 19.1627 41.9368 19.3142 41.8252 19.4258C41.7136 19.5373 41.562 19.5996 41.4043 19.5996H39.7949C39.6371 19.5996 39.4856 19.5373 39.374 19.4258C39.2624 19.3142 39.2002 19.1627 39.2002 19.0049V17.3945C39.2001 17.2369 39.1368 17.0861 39.0254 16.9746C38.9138 16.863 38.7623 16.7998 38.6045 16.7998H36.9951C36.8374 16.7998 36.6858 16.7375 36.5742 16.626C36.4627 16.5144 36.4004 16.3629 36.4004 16.2051V14.5947C36.4005 14.437 36.4627 14.2853 36.5742 14.1738C36.6858 14.0624 36.8374 14 36.9951 14H41.4043C41.5619 14 41.7136 13.9375 41.8252 13.8262C41.9367 13.7146 41.9999 13.563 42 13.4053V8.99512C42 8.83741 42.0624 8.68578 42.1738 8.57422C42.2853 8.4627 42.437 8.40046 42.5947 8.40039H44.7998V16.2051ZM3.1416 2.7998C2.954 2.7998 2.7998 2.9512 2.7998 3.1416V16.458C2.7998 16.6456 2.9512 16.7998 3.1416 16.7998H16.458C16.6456 16.7998 16.7998 16.6484 16.7998 16.458V3.1416C16.7998 2.954 16.6484 2.7998 16.458 2.7998H3.1416ZM53.541 2.7998C53.3536 2.80002 53.2002 2.95134 53.2002 3.1416V16.458C53.2002 16.6455 53.3508 16.7996 53.541 16.7998H66.8584C67.0459 16.7997 67.2002 16.6483 67.2002 16.458V3.1416C67.2002 2.95406 67.0487 2.7999 66.8584 2.7998H53.541ZM47.0049 8.40039C47.1626 8.40039 47.3142 8.46271 47.4258 8.57422C47.5374 8.6858 47.6006 8.83731 47.6006 8.99512V13.4053C47.6005 13.563 47.5373 13.7146 47.4258 13.8262C47.3142 13.9375 47.1625 14 47.0049 14H45.3955C45.2378 14 45.0862 14.0624 44.9746 14.1738C44.8631 14.2853 44.8009 14.437 44.8008 14.5947V8.40039H47.0049ZM13.4033 5.59766C13.7336 5.59766 13.9999 5.86587 14 6.19336V13.4062C14 13.7366 13.7309 14.0029 13.4033 14.0029H6.19336C5.86307 14.0028 5.59766 13.7338 5.59766 13.4062V6.19336C5.59779 5.86315 5.86595 5.59779 6.19336 5.59766H13.4033ZM63.8037 5.59766C64.1339 5.59777 64.4003 5.86594 64.4004 6.19336V13.4062C64.4004 13.7366 64.1312 14.0028 63.8037 14.0029H56.5938C56.2634 14.0029 55.9971 13.7338 55.9971 13.4062V6.19336C55.9972 5.86307 56.2662 5.59766 56.5938 5.59766H63.8037ZM35.8047 11.2002C36.1333 11.2002 36.4003 11.4664 36.4004 11.7949V13.4053C36.4002 13.7338 36.1332 14 35.8047 14H34.1953C33.8668 14 33.6007 13.7338 33.6006 13.4053V11.7949C33.6006 11.4664 33.8667 11.2002 34.1953 11.2002H35.8047ZM27.4043 0C27.5619 0 27.7136 0.0624576 27.8252 0.173828C27.9367 0.285348 27.9999 0.437021 28 0.594727V5.00488C28 5.1626 28.0624 5.31422 28.1738 5.42578C28.2853 5.5373 28.437 5.59954 28.5947 5.59961H30.2051C30.3629 5.59959 30.5144 5.53735 30.626 5.42578C30.7375 5.31421 30.7998 5.16264 30.7998 5.00488V8.99512C30.7998 8.83737 30.7375 8.68579 30.626 8.57422C30.5144 8.46265 30.3629 8.40041 30.2051 8.40039H28.5947C28.437 8.40046 28.2853 8.4627 28.1738 8.57422C28.0624 8.68578 28 8.83741 28 8.99512V10.6045C28 10.7623 27.9368 10.9138 27.8252 11.0254C27.7136 11.137 27.5621 11.2002 27.4043 11.2002H22.9951C22.8373 11.2002 22.6858 11.137 22.5742 11.0254C22.4627 10.9138 22.4004 10.7622 22.4004 10.6045V8.99512C22.4004 8.83731 22.4626 8.6858 22.5742 8.57422C22.6858 8.46265 22.8373 8.40039 22.9951 8.40039H24.6045C24.7623 8.40039 24.9138 8.33715 25.0254 8.22559C25.137 8.114 25.2002 7.96249 25.2002 7.80469V6.19531C25.2002 6.03751 25.137 5.886 25.0254 5.77441C24.9138 5.66287 24.7623 5.59961 24.6045 5.59961H22.9951C22.8373 5.59961 22.6858 5.53733 22.5742 5.42578C22.4626 5.3142 22.4004 5.16269 22.4004 5.00488V3.39453C22.4005 3.23696 22.4628 3.08607 22.5742 2.97461C22.6858 2.86303 22.8373 2.7998 22.9951 2.7998H24.6045C24.7622 2.7998 24.9138 2.73741 25.0254 2.62598C25.137 2.51441 25.2002 2.36285 25.2002 2.20508V0.594727C25.2003 0.437021 25.2625 0.285348 25.374 0.173828C25.4856 0.0623966 25.6372 0 25.7949 0H27.4043ZM41.4043 0C41.5619 0 41.7136 0.0624576 41.8252 0.173828C41.9367 0.285348 41.9999 0.437021 42 0.594727V5.00488C42 5.16269 41.9368 5.3142 41.8252 5.42578C41.7136 5.53727 41.562 5.59961 41.4043 5.59961H34.1953C34.0375 5.59961 33.886 5.66283 33.7744 5.77441C33.6628 5.886 33.6006 6.03752 33.6006 6.19531V10.6045C33.6006 10.7623 33.5373 10.9138 33.4258 11.0254C33.3142 11.137 33.1627 11.2002 33.0049 11.2002H31.3955C31.2377 11.2002 31.0862 11.137 30.9746 11.0254C30.8631 10.9138 30.8008 10.7622 30.8008 10.6045V3.39453C30.8009 3.23696 30.8632 3.08607 30.9746 2.97461C31.0862 2.86303 31.2377 2.7998 31.3955 2.7998H38.6045C38.7622 2.7998 38.9138 2.73741 39.0254 2.62598C39.137 2.51441 39.2002 2.36285 39.2002 2.20508V0.594727C39.2003 0.437021 39.2625 0.285348 39.374 0.173828C39.4856 0.0623966 39.6372 0 39.7949 0H41.4043ZM38.6045 8.40039C38.9331 8.40039 39.2002 8.66651 39.2002 8.99512V10.6045C39.2002 10.9331 38.9331 11.2002 38.6045 11.2002H36.9951C36.6665 11.2002 36.4004 10.9331 36.4004 10.6045V8.99512C36.4004 8.66651 36.6665 8.40039 36.9951 8.40039H38.6045ZM47.0049 0C47.3334 0 47.6004 0.266243 47.6006 0.594727V2.20508C47.6005 2.53365 47.3335 2.7998 47.0049 2.7998H45.3955C45.0669 2.7998 44.8008 2.53365 44.8008 2.20508V0.594727C44.8009 0.266243 45.067 0 45.3955 0H47.0049Z" fill="black"/>
</svg>
