<svg width="80" height="80" viewBox="0 0 80 80" fill="none" xmlns="http://www.w3.org/2000/svg">
<path d="M21.7217 57.5967C22.0992 57.5967 22.4033 57.904 22.4033 58.2783V79.3213C22.4033 79.6989 22.096 80.0029 21.7217 80.0029H0.678711C0.301111 80.0029 -0.00292969 79.6957 -0.00292969 79.3213V58.2783C-0.00289745 57.9039 0.304331 57.5967 0.678711 57.5967H21.7217ZM31.3193 60.7998C31.4997 60.7998 31.6733 60.8715 31.8008 60.999C31.9283 61.1265 32 61.3001 32 61.4805V69.7197C32 69.9001 31.9283 70.0736 31.8008 70.2012C31.6733 70.3286 31.4996 70.4004 31.3193 70.4004H29.4795C29.2993 70.4005 29.1265 70.4722 28.999 70.5996C28.8716 70.7271 28.7998 70.8998 28.7998 71.0801V72.9199C28.7998 73.1002 28.8716 73.2729 28.999 73.4004C29.1265 73.5278 29.2993 73.5995 29.4795 73.5996H31.3193C31.4996 73.5996 31.6733 73.6714 31.8008 73.7988C31.9283 73.9264 32 74.0999 32 74.2803V76.1201C32 76.3003 31.9282 76.4731 31.8008 76.6006C31.6733 76.7281 31.4997 76.7998 31.3193 76.7998H29.4795C29.2993 76.7999 29.1265 76.8716 28.999 76.999C28.8715 77.1265 28.7998 77.3001 28.7998 77.4805V79.3203C28.7997 79.5005 28.728 79.6733 28.6006 79.8008C28.4731 79.9282 28.3004 80 28.1201 80H26.2803C26.0999 80 25.9264 79.9283 25.7988 79.8008C25.6715 79.6734 25.6007 79.5004 25.6006 79.3203V64.6797C25.6007 64.4996 25.6715 64.3266 25.7988 64.1992C25.9264 64.0717 26.0999 64 26.2803 64H28.1201C28.3004 64 28.4731 63.9282 28.6006 63.8008C28.728 63.6733 28.7997 63.5005 28.7998 63.3203V61.4805C28.7998 61.3001 28.8715 61.1265 28.999 60.999C29.1265 60.8716 29.2993 60.7999 29.4795 60.7998H31.3193ZM40.9199 57.5996C41.1001 57.5996 41.2729 57.6715 41.4004 57.7988C41.5279 57.9264 41.5996 58.0999 41.5996 58.2803V60.1201C41.5996 60.3004 41.5279 60.4731 41.4004 60.6006C41.2729 60.7281 41.1002 60.7998 40.9199 60.7998H39.0801C38.8997 60.7998 38.7262 60.8715 38.5986 60.999C38.4712 61.1265 38.4004 61.3002 38.4004 61.4805V63.3291C38.4028 63.506 38.4734 63.6754 38.5986 63.8008C38.7262 63.9283 38.8997 64 39.0801 64H40.9199C41.1002 64 41.2729 64.0718 41.4004 64.1992C41.5278 64.3267 41.5995 64.4995 41.5996 64.6797V79.3203C41.5995 79.5005 41.5278 79.6733 41.4004 79.8008C41.2729 79.9282 41.1002 80 40.9199 80H39.0801C38.8997 80 38.7262 79.9283 38.5986 79.8008C38.4713 79.6734 38.4005 79.5004 38.4004 79.3203V67.8799C38.4004 67.6997 38.3285 67.5269 38.2012 67.3994C38.0736 67.2719 37.9001 67.2002 37.7197 67.2002H35.8799C35.6997 67.2001 35.5269 67.1284 35.3994 67.001C35.2719 66.8735 35.2002 66.6999 35.2002 66.5195V58.2803C35.2002 58.0999 35.2719 57.9264 35.3994 57.7988C35.5268 57.6715 35.6997 57.5997 35.8799 57.5996H40.9199ZM50.5195 76.7998C50.8951 76.7998 51.2002 77.1049 51.2002 77.4805V79.3203C51.2 79.6957 50.895 80 50.5195 80H48.6797C48.3044 79.9998 48.0002 79.6956 48 79.3203V77.4805C48 77.105 48.3043 76.8 48.6797 76.7998H50.5195ZM73.5996 80H71.0801C70.8997 80 70.7262 79.9283 70.5986 79.8008C70.4713 79.6734 70.4005 79.5004 70.4004 79.3203V77.4805C70.4004 77.3002 70.4712 77.1265 70.5986 76.999C70.7262 76.8715 70.8997 76.7998 71.0801 76.7998H72.9199C73.1002 76.7998 73.2729 76.7281 73.4004 76.6006C73.5279 76.4731 73.5996 76.3004 73.5996 76.1201V80ZM76.1201 73.5996C76.3003 73.5996 76.4731 73.6715 76.6006 73.7988C76.7281 73.9264 76.7998 74.0999 76.7998 74.2803V76.1201C76.7998 76.3004 76.8716 76.4731 76.999 76.6006C77.1265 76.728 77.2993 76.7997 77.4795 76.7998H79.3193C79.4997 76.7998 79.6733 76.8715 79.8008 76.999C79.9283 77.1265 80 77.3001 80 77.4805V79.3203C79.9999 79.5005 79.9282 79.6733 79.8008 79.8008C79.6733 79.9283 79.4997 80 79.3193 80H73.6006V74.2803C73.6006 74.1 73.6713 73.9263 73.7988 73.7988C73.9264 73.6713 74.0999 73.5996 74.2803 73.5996H76.1201ZM41.6006 69.7197C41.6006 69.9 41.6713 70.0737 41.7988 70.2012C41.9264 70.3287 42.0999 70.4004 42.2803 70.4004H47.3193C47.4997 70.4004 47.6733 70.4721 47.8008 70.5996C47.9281 70.7271 48 70.8999 48 71.0801V72.9199C48 73.1001 47.9281 73.2729 47.8008 73.4004C47.6733 73.5279 47.4997 73.5996 47.3193 73.5996H45.4795C45.2993 73.5997 45.1265 73.6715 44.999 73.7988C44.8715 73.9264 44.7998 74.0999 44.7998 74.2803V76.1201C44.7998 76.3004 44.7281 76.4731 44.6006 76.6006C44.4731 76.7281 44.3004 76.7998 44.1201 76.7998H42.2803C42.0999 76.7998 41.9264 76.8715 41.7988 76.999C41.6714 77.1265 41.6006 77.3002 41.6006 77.4805V69.7197ZM3.59082 60.7998C3.37642 60.7998 3.2002 60.9728 3.2002 61.1904V76.4092C3.2002 76.6236 3.37322 76.7998 3.59082 76.7998H18.8096C19.024 76.7998 19.2002 76.6268 19.2002 76.4092V61.1904C19.2002 60.976 19.0272 60.7998 18.8096 60.7998H3.59082ZM57.5996 76.7998H51.8799C51.6996 76.7997 51.5269 76.728 51.3994 76.6006C51.272 76.4731 51.2002 76.3004 51.2002 76.1201V74.2803C51.2002 74.0999 51.2719 73.9264 51.3994 73.7988C51.5268 73.6715 51.6997 73.5997 51.8799 73.5996H57.5996V76.7998ZM57.6006 50.5195C57.6006 50.6998 57.6714 50.8735 57.7988 51.001C57.9264 51.1285 58.0999 51.2002 58.2803 51.2002H69.7197C69.9001 51.2002 70.0736 51.2719 70.2012 51.3994C70.3285 51.5269 70.4004 51.6997 70.4004 51.8799V53.7197C70.4004 53.9001 70.3287 54.0736 70.2012 54.2012C70.0737 54.3286 69.9 54.4004 69.7197 54.4004H67.8799C67.6996 54.4005 67.5269 54.4722 67.3994 54.5996C67.272 54.7271 67.2002 54.8998 67.2002 55.0801V60.1201C67.2002 60.3004 67.272 60.4731 67.3994 60.6006C67.5269 60.728 67.6996 60.7997 67.8799 60.7998H69.7197C69.9001 60.7998 70.0736 60.8715 70.2012 60.999C70.3287 61.1265 70.4004 61.3001 70.4004 61.4805V66.5195C70.4004 66.6999 70.3287 66.8735 70.2012 67.001C70.0736 67.1285 69.9001 67.2002 69.7197 67.2002H67.8799C67.6996 67.2003 67.5269 67.272 67.3994 67.3994C67.272 67.5269 67.2002 67.6996 67.2002 67.8799V72.9199C67.2002 73.1002 67.272 73.2729 67.3994 73.4004C67.5269 73.5278 67.6996 73.5995 67.8799 73.5996H69.7197C69.9 73.5996 70.0737 73.6714 70.2012 73.7988C70.3287 73.9264 70.4004 74.0999 70.4004 74.2803V76.1201C70.4004 76.3003 70.3285 76.4731 70.2012 76.6006C70.0736 76.7281 69.9001 76.7998 69.7197 76.7998H57.6006V73.5996H63.3193C63.4997 73.5996 63.6733 73.5279 63.8008 73.4004C63.9281 73.2729 64 73.1001 64 72.9199V67.8799C64 67.6997 63.9282 67.5269 63.8008 67.3994C63.6733 67.2719 63.4997 67.2002 63.3193 67.2002H61.4795C61.2993 67.2003 61.1265 67.272 60.999 67.3994C60.8716 67.5269 60.7998 67.6996 60.7998 67.8799V69.7197C60.7998 69.9001 60.7281 70.0736 60.6006 70.2012C60.4731 70.3285 60.3003 70.4004 60.1201 70.4004H58.2803C58.0999 70.4004 57.9264 70.3287 57.7988 70.2012C57.6713 70.0737 57.6006 69.9 57.6006 69.7197V64H63.3193C63.4997 64 63.6733 63.9283 63.8008 63.8008C63.9282 63.6733 63.9999 63.5005 64 63.3203V55.0801C64 54.8999 63.9281 54.7271 63.8008 54.5996C63.6733 54.4721 63.4997 54.4004 63.3193 54.4004H57.6006V50.5195ZM15.3184 63.9971C15.696 63.9971 16 64.3043 16 64.6787V72.9219C15.9998 73.2993 15.6927 73.6035 15.3184 73.6035H7.07812C6.70075 73.6034 6.39664 73.2961 6.39648 72.9219V64.6787C6.39648 64.3012 6.70385 63.9972 7.07812 63.9971H15.3184ZM72.9199 70.4004C73.2955 70.4004 73.5996 70.7045 73.5996 71.0801V72.9199C73.5996 73.2955 73.2955 73.5996 72.9199 73.5996H71.0801C70.7045 73.5996 70.4004 73.2955 70.4004 72.9199V71.0801C70.4004 70.7045 70.7045 70.4004 71.0801 70.4004H72.9199ZM79.3193 67.2002C79.4997 67.2002 79.6733 67.2719 79.8008 67.3994C79.9282 67.5269 80 67.6997 80 67.8799V72.9199C80 73.1001 79.9281 73.2729 79.8008 73.4004C79.6733 73.5279 79.4997 73.5996 79.3193 73.5996H77.4795C77.2993 73.5995 77.1265 73.5278 76.999 73.4004C76.8716 73.2729 76.7998 73.1002 76.7998 72.9199V71.0801C76.7998 70.8997 76.7281 70.7271 76.6006 70.5996C76.4731 70.4721 76.3005 70.4004 76.1201 70.4004H74.2803C74.0999 70.4004 73.9264 70.3287 73.7988 70.2012C73.6713 70.0737 73.6006 69.9 73.6006 69.7197V67.8799C73.6006 67.6997 73.6715 67.5269 73.7988 67.3994C73.9264 67.2719 74.0999 67.2002 74.2803 67.2002H79.3193ZM57.5996 54.4004H55.0801C54.8997 54.4004 54.7262 54.4721 54.5986 54.5996C54.4714 54.7271 54.4004 54.8999 54.4004 55.0801V63.3291C54.4028 63.506 54.4734 63.6754 54.5986 63.8008C54.7262 63.9283 54.8997 64 55.0801 64H57.5996V67.8799C57.5996 67.6996 57.5279 67.5269 57.4004 67.3994C57.2729 67.2719 57.1002 67.2002 56.9199 67.2002H55.0801C54.8997 67.2002 54.7262 67.2719 54.5986 67.3994C54.4713 67.5269 54.4004 67.6997 54.4004 67.8799V69.7197C54.4004 69.9001 54.3287 70.0736 54.2012 70.2012C54.0737 70.3286 53.9 70.4004 53.7197 70.4004H48.6797C48.4995 70.4003 48.3267 70.3285 48.1992 70.2012C48.0717 70.0736 48 69.9001 48 69.7197V67.8799C48 67.6996 48.0718 67.5269 48.1992 67.3994C48.3267 67.272 48.4995 67.2003 48.6797 67.2002H50.5195C50.6999 67.2002 50.8735 67.1285 51.001 67.001C51.1285 66.8735 51.2002 66.6999 51.2002 66.5195V55.0801C51.2002 54.8999 51.1283 54.7271 51.001 54.5996C50.8735 54.4721 50.6999 54.4004 50.5195 54.4004H48.6797C48.4995 54.4003 48.3267 54.3285 48.1992 54.2012C48.0717 54.0736 48 53.9001 48 53.7197V51.8799C48 51.6996 48.0718 51.5269 48.1992 51.3994C48.3267 51.272 48.4995 51.2003 48.6797 51.2002H53.7197C53.9001 51.2002 54.0736 51.1285 54.2012 51.001C54.3287 50.8735 54.4004 50.6999 54.4004 50.5195V45.4805C54.4004 45.3001 54.3287 45.1265 54.2012 44.999C54.0736 44.8715 53.9001 44.7998 53.7197 44.7998H51.8799C51.6996 44.7997 51.5269 44.728 51.3994 44.6006C51.272 44.4731 51.2002 44.3004 51.2002 44.1201V42.2803C51.2002 42.0999 51.2719 41.9264 51.3994 41.7988C51.5268 41.6715 51.6997 41.5997 51.8799 41.5996H56.9199C57.1003 41.5996 57.2729 41.5279 57.4004 41.4004C57.5279 41.2729 57.5996 41.1002 57.5996 40.9199V54.4004ZM47.3193 64C47.6948 64 47.9998 64.3043 48 64.6797V66.5195C48 66.8951 47.6949 67.2002 47.3193 67.2002H45.4795C45.1041 67.2 44.7998 66.895 44.7998 66.5195V64.6797C44.8 64.3044 45.1042 64.0002 45.4795 64H47.3193ZM31.3193 44.7998C31.4997 44.7998 31.6733 44.8715 31.8008 44.999C31.9283 45.1265 32 45.3001 32 45.4805V47.3203C32.0001 47.5005 32.0718 47.6733 32.1992 47.8008C32.3267 47.9282 32.4995 47.9999 32.6797 48H34.5195C34.6999 48 34.8735 48.0717 35.001 48.1992C35.1284 48.3267 35.2001 48.4995 35.2002 48.6797V53.7197C35.2002 53.9001 35.1285 54.0736 35.001 54.2012C34.8735 54.3286 34.6998 54.4004 34.5195 54.4004H32.6797C32.4995 54.4005 32.3267 54.4722 32.1992 54.5996C32.0718 54.7271 32 54.8998 32 55.0801V56.9199C32 57.1001 31.9281 57.2729 31.8008 57.4004C31.6733 57.5279 31.4997 57.5996 31.3193 57.5996H29.4795C29.2993 57.5997 29.1265 57.6715 28.999 57.7988C28.8715 57.9264 28.7998 58.0999 28.7998 58.2803V60.1201C28.7998 60.3004 28.7281 60.4731 28.6006 60.6006C28.4731 60.7281 28.3004 60.7998 28.1201 60.7998H26.2803C26.0999 60.7998 25.9264 60.7281 25.7988 60.6006C25.6715 60.4731 25.6006 60.3003 25.6006 60.1201V51.8799C25.6006 51.6997 25.6715 51.5269 25.7988 51.3994C25.9264 51.2719 26.0999 51.2002 26.2803 51.2002H28.1201C28.3003 51.2002 28.4731 51.1283 28.6006 51.001C28.7281 50.8735 28.7998 50.6999 28.7998 50.5195V45.4805C28.7998 45.3001 28.8715 45.1265 28.999 44.999C29.1265 44.8716 29.2993 44.7999 29.4795 44.7998H31.3193ZM47.3193 57.5996C47.6949 57.5996 48 57.9047 48 58.2803V60.1201C47.9999 60.4956 47.6948 60.7998 47.3193 60.7998H45.4795C45.1041 60.7996 44.7999 60.4955 44.7998 60.1201V58.2803C44.7998 57.9048 45.1041 57.5998 45.4795 57.5996H47.3193ZM60.1201 57.5996C60.4957 57.5996 60.7998 57.9047 60.7998 58.2803V60.1201C60.7997 60.4956 60.4956 60.7998 60.1201 60.7998H58.2803C57.9048 60.7998 57.6007 60.4956 57.6006 60.1201V58.2803C57.6006 57.9047 57.9047 57.5996 58.2803 57.5996H60.1201ZM73.5996 60.7998H71.0801C70.8997 60.7998 70.7262 60.7281 70.5986 60.6006C70.4713 60.4731 70.4004 60.3003 70.4004 60.1201V58.2803C70.4004 58.1 70.4711 57.9263 70.5986 57.7988C70.7262 57.6713 70.8997 57.5996 71.0801 57.5996H73.5996V60.7998ZM79.3193 44.7998C79.4997 44.7998 79.6733 44.8715 79.8008 44.999C79.9283 45.1265 80 45.3001 80 45.4805V60.1201C80 60.3003 79.9282 60.4731 79.8008 60.6006C79.6733 60.7281 79.4997 60.7998 79.3193 60.7998H73.6006V57.5996H76.1201C76.3005 57.5996 76.4731 57.5279 76.6006 57.4004C76.7281 57.2729 76.7998 57.1002 76.7998 56.9199V51.8799C76.7998 51.6996 76.7281 51.5269 76.6006 51.3994C76.4731 51.2719 76.3004 51.2002 76.1201 51.2002H74.2803C74.0999 51.2002 73.9264 51.1285 73.7988 51.001C73.6714 50.8735 73.6006 50.6998 73.6006 50.5195V44.7998H79.3193ZM2.51953 32C2.69988 32 2.87345 32.0717 3.00098 32.1992C3.12837 32.3267 3.20011 32.4995 3.2002 32.6797V53.7197C3.2002 53.9001 3.1285 54.0736 3.00098 54.2012C2.87346 54.3286 2.69984 54.4004 2.51953 54.4004H0.679688C0.499542 54.4003 0.326652 54.3285 0.199219 54.2012C0.071694 54.0736 0 53.9001 0 53.7197V32.6797C8.27109e-05 32.4995 0.0717677 32.3267 0.199219 32.1992C0.32667 32.0718 0.499453 32.0001 0.679688 32H2.51953ZM9.59961 54.4004H7.08008C6.89973 54.4004 6.72616 54.3287 6.59863 54.2012C6.47114 54.0737 6.40039 53.9 6.40039 53.7197V51.8799C6.40042 51.6997 6.47135 51.5269 6.59863 51.3994C6.72616 51.2719 6.89973 51.2002 7.08008 51.2002H9.59961V54.4004ZM12.1201 51.2002C12.3004 51.2002 12.4731 51.2719 12.6006 51.3994C12.7281 51.5269 12.7998 51.6996 12.7998 51.8799V53.7197C12.7998 53.9001 12.7281 54.0736 12.6006 54.2012C12.4731 54.3285 12.3003 54.4004 12.1201 54.4004H9.60059V51.2002H12.1201ZM21.7197 51.2002C21.9001 51.2002 22.0736 51.2719 22.2012 51.3994C22.3285 51.5269 22.4004 51.6997 22.4004 51.8799V53.7197C22.4004 53.9001 22.3287 54.0736 22.2012 54.2012C22.0737 54.3286 21.9 54.4004 21.7197 54.4004H16.6797C16.4995 54.4003 16.3267 54.3285 16.1992 54.2012C16.0717 54.0736 16 53.9001 16 53.7197V51.8799C16 51.6996 16.0718 51.5269 16.1992 51.3994C16.3267 51.272 16.4995 51.2003 16.6797 51.2002H21.7197ZM40.9199 48C41.1002 48 41.2729 48.0718 41.4004 48.1992C41.5278 48.3267 41.5995 48.4995 41.5996 48.6797V53.7197C41.5996 53.9001 41.5279 54.0736 41.4004 54.2012C41.2729 54.3285 41.1001 54.4004 40.9199 54.4004H39.0801C38.8997 54.4004 38.7262 54.3287 38.5986 54.2012C38.4711 54.0737 38.4004 53.9 38.4004 53.7197V48.6797C38.4005 48.4996 38.4713 48.3266 38.5986 48.1992C38.7262 48.0717 38.8997 48 39.0801 48H40.9199ZM12.1201 38.4004C12.3005 38.4004 12.4731 38.4721 12.6006 38.5996C12.7281 38.7271 12.7998 38.8997 12.7998 39.0801V44.1201C12.7998 44.3004 12.8716 44.4731 12.999 44.6006C13.1265 44.728 13.2993 44.7997 13.4795 44.7998H15.3193C15.4997 44.7998 15.6733 44.8715 15.8008 44.999C15.9283 45.1265 16 45.3001 16 45.4805V50.5195C16 50.6999 15.9283 50.8735 15.8008 51.001C15.6733 51.1285 15.4997 51.2002 15.3193 51.2002H13.4795C13.2993 51.2001 13.1265 51.1284 12.999 51.001C12.8715 50.8735 12.7998 50.6999 12.7998 50.5195V48.6797C12.7997 48.4995 12.728 48.3267 12.6006 48.1992C12.4731 48.0718 12.3004 48 12.1201 48H9.60059V39.0801C9.60059 38.8999 9.67157 38.7271 9.79883 38.5996C9.92635 38.4721 10.0999 38.4004 10.2803 38.4004H12.1201ZM47.3193 44.7998C47.4997 44.7998 47.6733 44.8715 47.8008 44.999C47.9283 45.1265 48 45.3001 48 45.4805V50.5195C48 50.6999 47.9283 50.8735 47.8008 51.001C47.6733 51.1285 47.4997 51.2002 47.3193 51.2002H45.4795C45.2993 51.2001 45.1265 51.1284 44.999 51.001C44.8715 50.8735 44.7998 50.6999 44.7998 50.5195V48.6797C44.7997 48.4995 44.728 48.3267 44.6006 48.1992C44.4731 48.0718 44.3004 48 44.1201 48H42.2803C42.0999 48 41.9264 47.9283 41.7988 47.8008C41.6715 47.6734 41.6007 47.5004 41.6006 47.3203V45.4805C41.6006 45.3002 41.6714 45.1265 41.7988 44.999C41.9264 44.8715 42.0999 44.7998 42.2803 44.7998H47.3193ZM69.7197 38.4004C69.9001 38.4004 70.0736 38.4721 70.2012 38.5996C70.3285 38.7271 70.4004 38.8999 70.4004 39.0801V40.9199C70.4004 41.1001 70.3285 41.2729 70.2012 41.4004C70.0736 41.5279 69.9001 41.5996 69.7197 41.5996H67.8799C67.6997 41.5997 67.5268 41.6715 67.3994 41.7988C67.2719 41.9264 67.2002 42.0999 67.2002 42.2803V47.3203C67.2001 47.5005 67.1284 47.6733 67.001 47.8008C66.8735 47.9283 66.6999 48 66.5195 48H64.6797C64.4995 47.9999 64.3267 47.9282 64.1992 47.8008C64.0718 47.6733 64.0001 47.5005 64 47.3203V45.4805C64 45.3001 63.9283 45.1265 63.8008 44.999C63.6733 44.8715 63.4997 44.7998 63.3193 44.7998H61.4795C61.2993 44.7999 61.1265 44.8716 60.999 44.999C60.8715 45.1265 60.7998 45.3001 60.7998 45.4805V47.3203C60.7997 47.5005 60.728 47.6733 60.6006 47.8008C60.4731 47.9282 60.3004 48 60.1201 48H58.2803C58.0999 48 57.9264 48.0717 57.7988 48.1992C57.6715 48.3266 57.6007 48.4996 57.6006 48.6797V39.0801C57.6006 38.8999 57.6716 38.7271 57.7988 38.5996C57.9264 38.4721 58.0999 38.4004 58.2803 38.4004H69.7197ZM73.5996 48.6797C73.5995 48.4995 73.5278 48.3267 73.4004 48.1992C73.2729 48.0718 73.1002 48 72.9199 48H71.0801C70.8997 48 70.7262 47.9283 70.5986 47.8008C70.4713 47.6734 70.4005 47.5004 70.4004 47.3203V45.4805C70.4004 45.3002 70.4712 45.1265 70.5986 44.999C70.7262 44.8715 70.8997 44.7998 71.0801 44.7998H73.5996V48.6797ZM9.59961 48H7.08008C6.89973 48 6.72616 47.9283 6.59863 47.8008C6.47133 47.6734 6.40048 47.5004 6.40039 47.3203V42.2803C6.40039 42.1 6.47115 41.9263 6.59863 41.7988C6.72616 41.6713 6.89973 41.5996 7.08008 41.5996H8.91992C9.10026 41.5996 9.27287 41.5279 9.40039 41.4004C9.52788 41.2729 9.59961 41.1002 9.59961 40.9199V48ZM25.5996 47.3203C25.5995 47.5005 25.5278 47.6733 25.4004 47.8008C25.2729 47.9282 25.1002 48 24.9199 48H19.8799C19.6997 47.9999 19.5269 47.9282 19.3994 47.8008C19.272 47.6733 19.2003 47.5005 19.2002 47.3203V45.4805C19.2002 45.3001 19.2719 45.1265 19.3994 44.999C19.5269 44.8716 19.6997 44.7999 19.8799 44.7998H21.7197C21.9001 44.7998 22.0736 44.7281 22.2012 44.6006C22.3285 44.4731 22.4004 44.3003 22.4004 44.1201V42.2803C22.4004 42.0999 22.3287 41.9264 22.2012 41.7988C22.0737 41.6714 21.9 41.5996 21.7197 41.5996H19.8799C19.6996 41.5995 19.5269 41.5278 19.3994 41.4004C19.272 41.2729 19.2002 41.1002 19.2002 40.9199V39.0801C19.2002 38.8998 19.272 38.7271 19.3994 38.5996C19.5269 38.4722 19.6996 38.4005 19.8799 38.4004H24.9199C25.1001 38.4004 25.2729 38.3285 25.4004 38.2012C25.5279 38.0736 25.5996 37.9001 25.5996 37.7197V47.3203ZM34.5195 41.5996C34.8951 41.5996 35.2002 41.9047 35.2002 42.2803V44.1201C35.2001 44.4956 34.895 44.7998 34.5195 44.7998H32.6797C32.3043 44.7996 32.0001 44.4955 32 44.1201V42.2803C32 41.9048 32.3043 41.5998 32.6797 41.5996H34.5195ZM40.9199 41.5996C41.2955 41.5996 41.5996 41.9047 41.5996 42.2803V44.1201C41.5995 44.4956 41.2954 44.7998 40.9199 44.7998H39.0801C38.7046 44.7998 38.4005 44.4956 38.4004 44.1201V42.2803C38.4004 41.9047 38.7045 41.5996 39.0801 41.5996H40.9199ZM34.5195 25.5996C34.6998 25.5996 34.8735 25.6714 35.001 25.7988C35.1285 25.9264 35.2002 26.0999 35.2002 26.2803V28.1201C35.2002 28.3003 35.1284 28.4731 35.001 28.6006C34.8735 28.7281 34.6999 28.7998 34.5195 28.7998H32.6797C32.4995 28.7999 32.3267 28.8716 32.1992 28.999C32.0717 29.1265 32 29.3001 32 29.4805V34.5195C32 34.6999 32.0717 34.8735 32.1992 35.001C32.3267 35.1284 32.4995 35.2001 32.6797 35.2002H34.5195C34.6999 35.2002 34.8735 35.1285 35.001 35.001C35.1285 34.8735 35.2002 34.6999 35.2002 34.5195V32.6797C35.2003 32.4995 35.272 32.3267 35.3994 32.1992C35.5269 32.0718 35.6996 32.0001 35.8799 32H41.5996V35.2002H39.0801C38.8997 35.2002 38.7262 35.2719 38.5986 35.3994C38.4713 35.5269 38.4004 35.6997 38.4004 35.8799V40.9199C38.4004 41.1001 38.3285 41.2729 38.2012 41.4004C38.0736 41.5279 37.9001 41.5996 37.7197 41.5996H35.8799C35.6996 41.5995 35.5269 41.5278 35.3994 41.4004C35.272 41.2729 35.2002 41.1002 35.2002 40.9199V39.0801C35.2002 38.8999 35.1283 38.7271 35.001 38.5996C34.8735 38.4721 34.6999 38.4004 34.5195 38.4004H32.6797C32.4995 38.4005 32.3267 38.4722 32.1992 38.5996C32.0718 38.7271 32 38.8998 32 39.0801V40.9199C32 41.1001 31.9281 41.2729 31.8008 41.4004C31.6733 41.5279 31.4997 41.5996 31.3193 41.5996H26.2803C26.0999 41.5996 25.9264 41.6713 25.7988 41.7988C25.6713 41.9263 25.6006 42.1 25.6006 42.2803V35.8799C25.6006 35.6997 25.6715 35.5269 25.7988 35.3994C25.9264 35.2719 26.0999 35.2002 26.2803 35.2002H28.1201C28.3003 35.2002 28.4731 35.1283 28.6006 35.001C28.7281 34.8735 28.7998 34.6999 28.7998 34.5195V29.4805C28.7998 29.3001 28.7281 29.1265 28.6006 28.999C28.4731 28.8717 28.3003 28.7998 28.1201 28.7998H26.2803C26.0999 28.7998 25.9264 28.8715 25.7988 28.999C25.6714 29.1265 25.6006 29.3002 25.6006 29.4805V25.5996H34.5195ZM47.3193 35.2002C47.4997 35.2002 47.6733 35.2719 47.8008 35.3994C47.9282 35.5269 48 35.6997 48 35.8799V37.7197C48 37.9001 48.0717 38.0736 48.1992 38.2012C48.3267 38.3285 48.4995 38.4003 48.6797 38.4004H50.5195C50.6999 38.4004 50.8735 38.4721 51.001 38.5996C51.1283 38.7271 51.2002 38.8999 51.2002 39.0801V40.9199C51.2002 41.1001 51.1283 41.2729 51.001 41.4004C50.8735 41.5279 50.6999 41.5996 50.5195 41.5996H42.2803C42.0999 41.5996 41.9264 41.5279 41.7988 41.4004C41.6716 41.2729 41.6006 41.1001 41.6006 40.9199V39.0801C41.6006 38.8999 41.6716 38.7271 41.7988 38.5996C41.9264 38.4721 42.0999 38.4004 42.2803 38.4004H44.1201C44.3003 38.4004 44.4731 38.3285 44.6006 38.2012C44.7281 38.0736 44.7998 37.9001 44.7998 37.7197V35.8799C44.7998 35.6996 44.8716 35.5269 44.999 35.3994C45.1265 35.272 45.2993 35.2003 45.4795 35.2002H47.3193ZM79.3193 38.4004C79.4997 38.4004 79.6733 38.4721 79.8008 38.5996C79.9281 38.7271 80 38.8999 80 39.0801V40.9199C80 41.1001 79.9281 41.2729 79.8008 41.4004C79.6733 41.5279 79.4997 41.5996 79.3193 41.5996H74.2803C74.0999 41.5996 73.9264 41.5279 73.7988 41.4004C73.6716 41.2729 73.6006 41.1001 73.6006 40.9199V39.0801C73.6006 38.8999 73.6716 38.7271 73.7988 38.5996C73.9264 38.4721 74.0999 38.4004 74.2803 38.4004H79.3193ZM18.5195 35.2002C18.6999 35.2002 18.8735 35.2719 19.001 35.3994C19.1284 35.5269 19.2002 35.6997 19.2002 35.8799V37.7197C19.2002 37.9001 19.1285 38.0736 19.001 38.2012C18.8735 38.3286 18.6998 38.4004 18.5195 38.4004H13.4795C13.2993 38.4003 13.1265 38.3285 12.999 38.2012C12.8715 38.0736 12.7998 37.9001 12.7998 37.7197V35.8799C12.7998 35.6996 12.8716 35.5269 12.999 35.3994C13.1265 35.272 13.2993 35.2003 13.4795 35.2002H18.5195ZM41.6006 24.9199C41.6006 25.1001 41.6716 25.2729 41.7988 25.4004C41.9264 25.5279 42.0999 25.5996 42.2803 25.5996H50.5195C50.6998 25.5996 50.8735 25.6714 51.001 25.7988C51.1285 25.9264 51.2002 26.0999 51.2002 26.2803V28.1201C51.2002 28.3004 51.272 28.4731 51.3994 28.6006C51.5269 28.728 51.6996 28.7997 51.8799 28.7998H53.7197C53.9001 28.7998 54.0736 28.7281 54.2012 28.6006C54.3285 28.4731 54.4004 28.3003 54.4004 28.1201V26.2803C54.4004 26.1 54.4711 25.9263 54.5986 25.7988C54.7262 25.6713 54.8997 25.5996 55.0801 25.5996H56.9199C57.1001 25.5996 57.2729 25.6715 57.4004 25.7988C57.5279 25.9264 57.5996 26.0999 57.5996 26.2803V37.7197C57.5996 37.9001 57.5279 38.0736 57.4004 38.2012C57.2729 38.3285 57.1001 38.4004 56.9199 38.4004H51.8799C51.6997 38.4003 51.5268 38.3285 51.3994 38.2012C51.2719 38.0736 51.2002 37.9001 51.2002 37.7197V35.8799C51.2002 35.6996 51.272 35.5269 51.3994 35.3994C51.5269 35.272 51.6996 35.2003 51.8799 35.2002H53.7197C53.9001 35.2002 54.0736 35.1285 54.2012 35.001C54.3287 34.8735 54.4004 34.6999 54.4004 34.5195V32.6797C54.4003 32.4995 54.3286 32.3267 54.2012 32.1992C54.0736 32.0717 53.9001 32 53.7197 32H51.8799C51.6996 32.0001 51.5269 32.0718 51.3994 32.1992C51.272 32.3267 51.2003 32.4995 51.2002 32.6797V34.5195C51.2002 34.6999 51.1285 34.8735 51.001 35.001C50.8735 35.1285 50.6999 35.2002 50.5195 35.2002H48.6797C48.4995 35.2001 48.3267 35.1284 48.1992 35.001C48.0717 34.8735 48 34.6999 48 34.5195V32.6797C47.9999 32.4995 47.9282 32.3267 47.8008 32.1992C47.6733 32.0717 47.4997 32 47.3193 32H45.4795C45.2993 31.9999 45.1265 31.9282 44.999 31.8008C44.8716 31.6733 44.7999 31.5005 44.7998 31.3203V29.4805C44.7998 29.3001 44.7281 29.1265 44.6006 28.999C44.4731 28.8717 44.3003 28.7998 44.1201 28.7998H41.6006V24.9199ZM57.6006 31.3203C57.6007 31.5004 57.6715 31.6734 57.7988 31.8008C57.9264 31.9283 58.0999 32 58.2803 32H60.1201C60.3004 32 60.4731 32.0718 60.6006 32.1992C60.728 32.3267 60.7997 32.4995 60.7998 32.6797V34.5195C60.7998 34.6999 60.7281 34.8735 60.6006 35.001C60.4731 35.1283 60.3003 35.2002 60.1201 35.2002H58.2803C58.0999 35.2002 57.9264 35.2719 57.7988 35.3994C57.6715 35.5269 57.6006 35.6997 57.6006 35.8799V31.3203ZM9.59961 34.5195C9.59961 34.6999 9.52792 34.8735 9.40039 35.001C9.27289 35.1283 9.10015 35.2002 8.91992 35.2002H7.08008C6.89973 35.2002 6.72616 35.1285 6.59863 35.001C6.4712 34.8735 6.40039 34.6998 6.40039 34.5195V32.6797C6.40031 32.4995 6.32856 32.3267 6.20117 32.1992C6.07365 32.0717 5.90007 32 5.71973 32H3.87988C3.69965 31.9999 3.52686 31.9282 3.39941 31.8008C3.27197 31.6733 3.20028 31.5005 3.2002 31.3203V29.4805C3.2002 29.3001 3.1285 29.1265 3.00098 28.999C2.87345 28.8715 2.69988 28.7998 2.51953 28.7998H0.679688C0.499453 28.7997 0.32667 28.728 0.199219 28.6006C0.0717808 28.4731 3.74238e-05 28.3004 0 28.1201V26.2803C0 26.0999 0.071694 25.9264 0.199219 25.7988C0.326652 25.6715 0.499539 25.5997 0.679688 25.5996H9.59961V34.5195ZM25.5996 34.5195C25.5996 34.6999 25.5279 34.8735 25.4004 35.001C25.2729 35.1283 25.1001 35.2002 24.9199 35.2002H19.8799C19.6997 35.2001 19.5269 35.1284 19.3994 35.001C19.2719 34.8735 19.2002 34.6999 19.2002 34.5195V32.6797C19.2003 32.4995 19.272 32.3267 19.3994 32.1992C19.5269 32.0718 19.6996 32.0001 19.8799 32H21.7197C21.9001 32 22.0736 31.9283 22.2012 31.8008C22.3286 31.6733 22.4003 31.5005 22.4004 31.3203V29.4805C22.4004 29.3001 22.3287 29.1265 22.2012 28.999C22.0736 28.8715 21.9001 28.7998 21.7197 28.7998H19.8799C19.6996 28.7997 19.5269 28.728 19.3994 28.6006C19.272 28.4731 19.2002 28.3004 19.2002 28.1201V26.2803C19.2002 26.0999 19.2719 25.9264 19.3994 25.7988C19.5268 25.6715 19.6997 25.5997 19.8799 25.5996H25.5996V34.5195ZM44.1201 32C44.3004 32 44.4731 32.0718 44.6006 32.1992C44.728 32.3267 44.7997 32.4995 44.7998 32.6797V34.5195C44.7998 34.6999 44.7281 34.8735 44.6006 35.001C44.4731 35.1283 44.3003 35.2002 44.1201 35.2002H41.6006V32H44.1201ZM63.3193 25.5996C63.4996 25.5996 63.6733 25.6714 63.8008 25.7988C63.9283 25.9264 64 26.0999 64 26.2803V28.1201C64 28.3004 64.0718 28.4731 64.1992 28.6006C64.3267 28.728 64.4995 28.7997 64.6797 28.7998H66.5195C66.6999 28.7998 66.8735 28.8715 67.001 28.999C67.1285 29.1265 67.2002 29.3001 67.2002 29.4805V34.5195C67.2002 34.6999 67.1285 34.8735 67.001 35.001C66.8735 35.1285 66.6999 35.2002 66.5195 35.2002H64.6797C64.4995 35.2001 64.3267 35.1284 64.1992 35.001C64.0717 34.8735 64 34.6999 64 34.5195V32.6797C63.9999 32.4995 63.9282 32.3267 63.8008 32.1992C63.6733 32.0717 63.4997 32 63.3193 32H61.4795C61.2993 31.9999 61.1265 31.9282 60.999 31.8008C60.8716 31.6733 60.7999 31.5005 60.7998 31.3203V26.2803C60.7998 26.0999 60.8715 25.9264 60.999 25.7988C61.1265 25.6715 61.2993 25.5997 61.4795 25.5996H63.3193ZM72.9199 32C73.2954 32 73.5994 32.3043 73.5996 32.6797V34.5195C73.5996 34.8951 73.2955 35.2002 72.9199 35.2002H71.0801C70.7045 35.2002 70.4004 34.8951 70.4004 34.5195V32.6797C70.4006 32.3043 70.7046 32 71.0801 32H72.9199ZM15.3193 25.5996C15.4996 25.5996 15.6733 25.6714 15.8008 25.7988C15.9283 25.9264 16 26.0999 16 26.2803V28.1201C16 28.3004 16.0718 28.4731 16.1992 28.6006C16.3267 28.728 16.4995 28.7997 16.6797 28.7998H18.5195C18.6999 28.7998 18.8735 28.8715 19.001 28.999C19.1285 29.1265 19.2002 29.3001 19.2002 29.4805V31.3203C19.2001 31.5005 19.1284 31.6733 19.001 31.8008C18.8735 31.9283 18.6999 32 18.5195 32H10.2803C10.0999 32 9.92635 32.0717 9.79883 32.1992C9.67153 32.3266 9.60067 32.4996 9.60059 32.6797V25.5996H15.3193ZM79.3193 28.7998C79.6949 28.7998 80 29.1049 80 29.4805V31.3203C79.9998 31.6957 79.6948 32 79.3193 32H77.4795C77.1042 31.9998 76.8 31.6956 76.7998 31.3203V29.4805C76.7998 29.105 77.1041 28.8 77.4795 28.7998H79.3193ZM40.9199 19.2002C41.1002 19.2002 41.2729 19.2719 41.4004 19.3994C41.5279 19.5269 41.5996 19.6996 41.5996 19.8799V28.7998H39.0801C38.8997 28.7998 38.7262 28.7281 38.5986 28.6006C38.4713 28.4731 38.4004 28.3003 38.4004 28.1201V19.8799C38.4004 19.6997 38.4713 19.5269 38.5986 19.3994C38.7262 19.2719 38.8997 19.2002 39.0801 19.2002H40.9199ZM69.7197 25.5996C70.0953 25.5996 70.4004 25.9047 70.4004 26.2803V28.1201C70.4003 28.4956 70.0952 28.7998 69.7197 28.7998H67.8799C67.5045 28.7996 67.2003 28.4955 67.2002 28.1201V26.2803C67.2002 25.9048 67.5045 25.5998 67.8799 25.5996H69.7197ZM76.1201 25.5996C76.4957 25.5996 76.7998 25.9047 76.7998 26.2803V28.1201C76.7997 28.4956 76.4956 28.7998 76.1201 28.7998H74.2803C73.9048 28.7998 73.6007 28.4956 73.6006 28.1201V26.2803C73.6006 25.9047 73.9047 25.5996 74.2803 25.5996H76.1201ZM53.7197 19.2002C53.9001 19.2002 54.0736 19.2719 54.2012 19.3994C54.3285 19.5269 54.4004 19.6997 54.4004 19.8799V24.9199C54.4004 25.1001 54.3285 25.2729 54.2012 25.4004C54.0736 25.5279 53.9001 25.5996 53.7197 25.5996H51.8799C51.6996 25.5995 51.5269 25.5278 51.3994 25.4004C51.272 25.2729 51.2002 25.1002 51.2002 24.9199V19.8799C51.2002 19.6996 51.272 19.5269 51.3994 19.3994C51.5269 19.272 51.6996 19.2003 51.8799 19.2002H53.7197ZM21.7217 -0.00292969C22.0992 -0.00288683 22.4033 0.304337 22.4033 0.678711V21.7217C22.4033 22.0992 22.096 22.4033 21.7217 22.4033H0.678711C0.301137 22.4033 -0.00288692 22.096 -0.00292969 21.7217V0.678711C-0.00292969 0.304311 0.304311 -0.00292969 0.678711 -0.00292969H21.7217ZM79.3213 -0.00292969C79.6989 -0.00292969 80.0029 0.304311 80.0029 0.678711V21.7217C80.0029 22.0992 79.6957 22.4033 79.3213 22.4033H58.2783C57.9008 22.4032 57.5967 22.096 57.5967 21.7217V0.678711C57.5967 0.304371 57.904 -0.00283067 58.2783 -0.00292969H79.3213ZM28.1201 16C28.3004 16 28.4731 16.0718 28.6006 16.1992C28.728 16.3267 28.7997 16.4995 28.7998 16.6797V21.7197C28.7998 21.9001 28.7281 22.0736 28.6006 22.2012C28.4731 22.3285 28.3003 22.4004 28.1201 22.4004H26.2803C26.0999 22.4004 25.9264 22.3287 25.7988 22.2012C25.6713 22.0737 25.6006 21.9 25.6006 21.7197V16.6797C25.6007 16.4996 25.6715 16.3266 25.7988 16.1992C25.9264 16.0717 26.0999 16 26.2803 16H28.1201ZM34.5195 12.7998C34.6999 12.7998 34.8735 12.8715 35.001 12.999C35.1285 13.1265 35.2002 13.3001 35.2002 13.4805V21.7197C35.2002 21.9001 35.1285 22.0736 35.001 22.2012C34.8735 22.3286 34.6998 22.4004 34.5195 22.4004H32.6797C32.4995 22.4003 32.3267 22.3285 32.1992 22.2012C32.0717 22.0736 32 21.9001 32 21.7197V13.4805C32 13.3001 32.0717 13.1265 32.1992 12.999C32.3267 12.8716 32.4995 12.7999 32.6797 12.7998H34.5195ZM53.7197 9.59961C53.9 9.59961 54.0737 9.67136 54.2012 9.79883C54.3287 9.92635 54.4004 10.0999 54.4004 10.2803V15.3203C54.4003 15.5005 54.3286 15.6733 54.2012 15.8008C54.0736 15.9283 53.9001 16 53.7197 16H51.8799C51.6996 16.0001 51.5269 16.0718 51.3994 16.1992C51.272 16.3267 51.2003 16.4995 51.2002 16.6797V18.5195C51.2002 18.6999 51.1285 18.8735 51.001 19.001C50.8735 19.1285 50.6999 19.2002 50.5195 19.2002H48.6797C48.4995 19.2003 48.3267 19.272 48.1992 19.3994C48.0718 19.5269 48 19.6996 48 19.8799V21.7197C48 21.9001 47.9283 22.0736 47.8008 22.2012C47.6733 22.3286 47.4996 22.4004 47.3193 22.4004H45.4795C45.2993 22.4003 45.1265 22.3285 44.999 22.2012C44.8715 22.0736 44.7998 21.9001 44.7998 21.7197V19.8799C44.7998 19.6996 44.7281 19.5269 44.6006 19.3994C44.4731 19.2719 44.3004 19.2002 44.1201 19.2002H42.2803C42.0999 19.2002 41.9264 19.1285 41.7988 19.001C41.6714 18.8735 41.6006 18.6998 41.6006 18.5195V16.6797C41.6007 16.4996 41.6715 16.3266 41.7988 16.1992C41.9264 16.0717 42.0999 16 42.2803 16H47.3193C47.4997 16 47.6733 15.9283 47.8008 15.8008C47.9282 15.6733 47.9999 15.5005 48 15.3203V10.2803C48 10.0999 48.0717 9.92635 48.1992 9.79883C48.3267 9.67149 48.4995 9.59969 48.6797 9.59961H53.7197ZM3.59082 3.2002C3.37642 3.2002 3.2002 3.37322 3.2002 3.59082V18.8096C3.2002 19.024 3.37322 19.2002 3.59082 19.2002H18.8096C19.024 19.2002 19.2002 19.0272 19.2002 18.8096V3.59082C19.2002 3.37642 19.0272 3.2002 18.8096 3.2002H3.59082ZM61.1904 3.2002C60.9761 3.20023 60.7998 3.37324 60.7998 3.59082V18.8096C60.7998 19.0239 60.9729 19.2002 61.1904 19.2002H76.4102C76.6243 19.2 76.7998 19.027 76.7998 18.8096V3.59082C76.7998 3.37657 76.6275 3.20044 76.4102 3.2002H61.1904ZM15.3184 6.39648C15.6959 6.39648 15.9999 6.70385 16 7.07812V15.3213C16 15.6989 15.6928 16.0029 15.3184 16.0029H7.07812C6.70065 16.0028 6.39648 15.6956 6.39648 15.3213V7.07812C6.39663 6.70075 6.70394 6.39663 7.07812 6.39648H15.3184ZM72.9189 6.39648C73.2962 6.39672 73.6004 6.704 73.6006 7.07812V15.3213C73.6006 15.6987 73.2931 16.0027 72.9189 16.0029H64.6787C64.3011 16.0029 63.9971 15.6957 63.9971 15.3213V7.07812C63.9972 6.70065 64.3044 6.39648 64.6787 6.39648H72.9189ZM40.9199 12.7998C41.2955 12.7998 41.5996 13.1049 41.5996 13.4805V15.3203C41.5994 15.6957 41.2954 16 40.9199 16H39.0801C38.7046 16 38.4006 15.6957 38.4004 15.3203V13.4805C38.4004 13.1049 38.7045 12.7998 39.0801 12.7998H40.9199ZM31.3193 0C31.4997 0 31.6733 0.071694 31.8008 0.199219C31.9282 0.32666 31.9999 0.499499 32 0.679688V5.71973C32 5.90007 32.0717 6.07365 32.1992 6.20117C32.3267 6.3285 32.4995 6.40031 32.6797 6.40039H34.5195C34.6998 6.40039 34.8735 6.32864 35.001 6.20117C35.1285 6.07365 35.2002 5.90007 35.2002 5.71973V3.87988C35.2002 3.69963 35.272 3.5269 35.3994 3.39941C35.5269 3.27196 35.6996 3.20028 35.8799 3.2002H41.5996V6.40039H39.0801C38.8997 6.40039 38.7262 6.47208 38.5986 6.59961C38.4714 6.72709 38.4004 6.89993 38.4004 7.08008V12.1201C38.4004 12.3003 38.3285 12.4731 38.2012 12.6006C38.0736 12.7281 37.9001 12.7998 37.7197 12.7998H35.8799C35.6996 12.7997 35.5269 12.728 35.3994 12.6006C35.272 12.4731 35.2002 12.3004 35.2002 12.1201V10.2803C35.2002 10.0999 35.1285 9.92635 35.001 9.79883C34.8735 9.67136 34.6998 9.59961 34.5195 9.59961H32.6797C32.4995 9.59969 32.3267 9.67149 32.1992 9.79883C32.0717 9.92635 32 10.0999 32 10.2803V12.1201C32 12.3003 31.9282 12.4731 31.8008 12.6006C31.6733 12.7281 31.4997 12.7998 31.3193 12.7998H26.2803C26.0999 12.7998 25.9264 12.7281 25.7988 12.6006C25.6715 12.4731 25.6006 12.3003 25.6006 12.1201V10.2803C25.6006 10.1 25.6713 9.92635 25.7988 9.79883C25.9264 9.6713 26.0999 9.59961 26.2803 9.59961H28.1201C28.3005 9.5996 28.4731 9.52791 28.6006 9.40039C28.7281 9.27287 28.7998 9.10024 28.7998 8.91992V7.08008C28.7998 6.89975 28.7281 6.72713 28.6006 6.59961C28.4731 6.47209 28.3005 6.4004 28.1201 6.40039H26.2803C26.0999 6.40039 25.9264 6.3287 25.7988 6.20117C25.6713 6.07365 25.6006 5.90005 25.6006 5.71973V3.87988C25.6006 3.69974 25.6715 3.52688 25.7988 3.39941C25.9264 3.27189 26.0999 3.2002 26.2803 3.2002H28.1201C28.3003 3.20019 28.4731 3.12834 28.6006 3.00098C28.7281 2.87345 28.7998 2.69988 28.7998 2.51953V0.679688C28.7999 0.499453 28.8716 0.32667 28.999 0.199219C29.1265 0.0717677 29.2993 8.27109e-05 29.4795 0H31.3193ZM44.1201 9.59961C44.4957 9.59962 44.7998 9.90473 44.7998 10.2803V12.1201C44.7997 12.4956 44.4956 12.7998 44.1201 12.7998H42.2803C41.9048 12.7998 41.6007 12.4956 41.6006 12.1201V10.2803C41.6006 9.90472 41.9047 9.59961 42.2803 9.59961H44.1201ZM47.3193 0C47.4997 0 47.6733 0.071694 47.8008 0.199219C47.9282 0.32666 47.9999 0.499499 48 0.679688V5.71973C48 5.90007 47.9283 6.07365 47.8008 6.20117C47.6733 6.32864 47.4996 6.40039 47.3193 6.40039H41.6006V3.2002H44.1201C44.3003 3.20019 44.4731 3.12834 44.6006 3.00098C44.7281 2.87345 44.7998 2.69988 44.7998 2.51953V0.679688C44.7999 0.499453 44.8716 0.32667 44.999 0.199219C45.1265 0.0717677 45.2993 8.27109e-05 45.4795 0H47.3193ZM53.7197 0C54.0952 0 54.4002 0.304277 54.4004 0.679688V2.51953C54.4004 2.89508 54.0953 3.2002 53.7197 3.2002H51.8799C51.5045 3.20003 51.2002 2.89498 51.2002 2.51953V0.679688C51.2004 0.304382 51.5046 0.000168789 51.8799 0H53.7197Z" fill="black"/>
</svg>
